<?xml version="1.0" encoding="UTF-8"?>
<svg xmlns="http://www.w3.org/2000/svg" xmlns:xlink="http://www.w3.org/1999/xlink" width="3004" height="2037" viewBox="0 0 3004 2037">

<path fill="none" stroke-width="2.16" stroke-linecap="butt" stroke-linejoin="miter" stroke="rgb(81.639099%, 81.25%, 91.014099%)" stroke-opacity="1" stroke-miterlimit="22.9256" d="M 10 20361.992188 L 30029.21875 20361.992188 L 30029.21875 10 L 10 10 Z M 10 20361.992188 " transform="matrix(0.1, 0, 0, -0.1, 0, 2037)"/>
<path fill-rule="evenodd" fill="rgb(23.925781%, 24.705505%, 39.208984%)" fill-opacity="1" d="M 2299.429688 660.859375 L 2268.640625 660.859375 C 2271.660156 659.691406 2273.671875 657.648438 2273.671875 655.339844 C 2273.671875 653.25 2272.011719 651.378906 2269.449219 650.179688 L 2286.828125 650.179688 C 2292.808594 650.179688 2297.710938 647.230469 2297.710938 643.628906 C 2297.710938 640.03125 2292.808594 637.089844 2286.828125 637.089844 L 2056.710938 637.089844 C 2050.730469 637.089844 2045.839844 640.03125 2045.839844 643.628906 C 2045.839844 645.730469 2047.5 647.601562 2050.058594 648.800781 L 2032.671875 648.800781 C 2026.691406 648.800781 2021.800781 651.738281 2021.800781 655.339844 C 2021.800781 658.941406 2026.691406 661.890625 2032.671875 661.890625 L 2063.460938 661.890625 C 2060.441406 663.058594 2058.429688 665.089844 2058.429688 667.398438 C 2058.429688 671 2063.328125 673.949219 2069.308594 673.949219 L 2299.429688 673.949219 C 2305.410156 673.949219 2310.300781 671 2310.300781 667.398438 C 2310.300781 663.800781 2305.410156 660.859375 2299.429688 660.859375 "/>
<path fill-rule="evenodd" fill="rgb(23.925781%, 24.705505%, 39.208984%)" fill-opacity="1" d="M 1130.199219 794.910156 L 1094.511719 794.910156 C 1098.011719 793.558594 1100.339844 791.191406 1100.339844 788.519531 C 1100.339844 786.089844 1098.421875 783.921875 1095.449219 782.53125 L 1115.601562 782.53125 C 1122.539062 782.53125 1128.210938 779.109375 1128.210938 774.941406 C 1128.210938 770.761719 1122.539062 767.351562 1115.601562 767.351562 L 848.816406 767.351562 C 841.878906 767.351562 836.207031 770.761719 836.207031 774.941406 C 836.207031 777.371094 838.128906 779.539062 841.101562 780.929688 L 820.941406 780.929688 C 814.007812 780.929688 808.332031 784.339844 808.332031 788.519531 C 808.332031 792.691406 814.007812 796.109375 820.941406 796.109375 L 856.636719 796.109375 C 853.136719 797.460938 850.804688 799.820312 850.804688 802.5 C 850.804688 806.671875 856.480469 810.078125 863.414062 810.078125 L 1130.199219 810.078125 C 1137.140625 810.078125 1142.808594 806.671875 1142.808594 802.5 C 1142.808594 798.320312 1137.140625 794.910156 1130.199219 794.910156 "/>
<path fill-rule="evenodd" fill="rgb(17.259216%, 18.041992%, 21.18988%)" fill-opacity="1" d="M 2577.769531 1080.789062 L 2628.121094 1080.789062 L 2665.171875 1435.746094 L 2542.980469 1435.746094 L 2577.769531 1080.789062 "/>
<path fill="none" stroke-width="2.16" stroke-linecap="butt" stroke-linejoin="miter" stroke="rgb(23.925781%, 24.705505%, 39.208984%)" stroke-opacity="1" stroke-miterlimit="22.9256" d="M 25777.695312 9562.109375 L 26281.210938 9562.109375 L 26651.71875 6012.539062 L 25429.804688 6012.539062 Z M 25777.695312 9562.109375 " transform="matrix(0.1, 0, 0, -0.1, 0, 2037)"/>
<path fill-rule="evenodd" fill="rgb(17.259216%, 18.041992%, 21.18988%)" fill-opacity="1" d="M 2555.480469 1158.035156 L 2650.070312 1158.035156 L 2650.070312 1162.035156 L 2555.480469 1162.035156 L 2555.480469 1158.035156 "/>
<path fill="none" stroke-width="2.16" stroke-linecap="butt" stroke-linejoin="miter" stroke="rgb(23.925781%, 24.705505%, 39.208984%)" stroke-opacity="1" stroke-miterlimit="22.9256" d="M 25554.804688 8789.648438 L 26500.703125 8789.648438 L 26500.703125 8749.648438 L 25554.804688 8749.648438 Z M 25554.804688 8789.648438 " transform="matrix(0.1, 0, 0, -0.1, 0, 2037)"/>
<path fill-rule="evenodd" fill="rgb(17.259216%, 18.041992%, 21.18988%)" fill-opacity="1" d="M 2561.699219 1161.921875 L 2644.671875 1161.921875 L 2644.671875 1165.917969 L 2561.699219 1165.917969 L 2561.699219 1161.921875 "/>
<path fill="none" stroke-width="2.16" stroke-linecap="butt" stroke-linejoin="miter" stroke="rgb(23.925781%, 24.705505%, 39.208984%)" stroke-opacity="1" stroke-miterlimit="22.9256" d="M 25616.992188 8750.78125 L 26446.71875 8750.78125 L 26446.71875 8710.820312 L 25616.992188 8710.820312 Z M 25616.992188 8750.78125 " transform="matrix(0.1, 0, 0, -0.1, 0, 2037)"/>
<path fill-rule="evenodd" fill="rgb(17.259216%, 18.041992%, 21.18988%)" fill-opacity="1" d="M 2546.449219 1232.167969 L 2661.550781 1232.167969 L 2661.550781 1236.167969 L 2546.449219 1236.167969 L 2546.449219 1232.167969 "/>
<path fill="none" stroke-width="2.16" stroke-linecap="butt" stroke-linejoin="miter" stroke="rgb(23.925781%, 24.705505%, 39.208984%)" stroke-opacity="1" stroke-miterlimit="22.9256" d="M 25464.492188 8048.320312 L 26615.507812 8048.320312 L 26615.507812 8008.320312 L 25464.492188 8008.320312 Z M 25464.492188 8048.320312 " transform="matrix(0.1, 0, 0, -0.1, 0, 2037)"/>
<path fill-rule="evenodd" fill="rgb(17.259216%, 18.041992%, 21.18988%)" fill-opacity="1" d="M 2553.339844 1236.050781 L 2654.308594 1236.050781 L 2654.308594 1240.050781 L 2553.339844 1240.050781 L 2553.339844 1236.050781 "/>
<path fill="none" stroke-width="2.16" stroke-linecap="butt" stroke-linejoin="miter" stroke="rgb(23.925781%, 24.705505%, 39.208984%)" stroke-opacity="1" stroke-miterlimit="22.9256" d="M 25533.398438 8009.492188 L 26543.085938 8009.492188 L 26543.085938 7969.492188 L 25533.398438 7969.492188 Z M 25533.398438 8009.492188 " transform="matrix(0.1, 0, 0, -0.1, 0, 2037)"/>
<path fill-rule="evenodd" fill="rgb(17.259216%, 18.041992%, 21.18988%)" fill-opacity="1" d="M 2522.761719 1327.464844 L 2688.679688 1327.464844 L 2688.679688 1333.355469 L 2522.761719 1333.355469 L 2522.761719 1327.464844 "/>
<path fill="none" stroke-width="2.16" stroke-linecap="butt" stroke-linejoin="miter" stroke="rgb(23.925781%, 24.705505%, 39.208984%)" stroke-opacity="1" stroke-miterlimit="22.9256" d="M 25227.617188 7095.351562 L 26886.796875 7095.351562 L 26886.796875 7036.445312 L 25227.617188 7036.445312 Z M 25227.617188 7095.351562 " transform="matrix(0.1, 0, 0, -0.1, 0, 2037)"/>
<path fill-rule="evenodd" fill="rgb(17.259216%, 18.041992%, 21.18988%)" fill-opacity="1" d="M 2532.320312 1333.328125 L 2677.859375 1333.328125 L 2677.859375 1339.21875 L 2532.320312 1339.21875 L 2532.320312 1333.328125 "/>
<path fill="none" stroke-width="2.16" stroke-linecap="butt" stroke-linejoin="miter" stroke="rgb(23.925781%, 24.705505%, 39.208984%)" stroke-opacity="1" stroke-miterlimit="22.9256" d="M 25323.203125 7036.71875 L 26778.59375 7036.71875 L 26778.59375 6977.8125 L 25323.203125 6977.8125 Z M 25323.203125 7036.71875 " transform="matrix(0.1, 0, 0, -0.1, 0, 2037)"/>
<path fill-rule="evenodd" fill="rgb(17.259216%, 18.041992%, 21.18988%)" fill-opacity="1" d="M 2609.679688 1027.078125 C 2626.871094 1031.289062 2640.191406 1052.722656 2641.5 1079.171875 L 2565.46875 1079.171875 C 2566.789062 1052.523438 2580.300781 1030.96875 2597.679688 1026.988281 C 2601.121094 1023.71875 2603.480469 1016.871094 2603.480469 1008.960938 C 2603.480469 1008.621094 2603.46875 1008.289062 2603.46875 1007.960938 L 2603.800781 1007.960938 C 2603.789062 1008.289062 2603.78125 1008.621094 2603.78125 1008.960938 C 2603.78125 1016.949219 2606.191406 1023.851562 2609.679688 1027.078125 "/>
<path fill="none" stroke-width="2.16" stroke-linecap="butt" stroke-linejoin="miter" stroke="rgb(23.925781%, 24.705505%, 39.208984%)" stroke-opacity="1" stroke-miterlimit="22.9256" d="M 26096.796875 10099.21875 C 26268.710938 10057.109375 26401.914062 9842.773438 26415 9578.28125 L 25654.6875 9578.28125 C 25667.890625 9844.765625 25803.007812 10060.3125 25976.796875 10100.117188 C 26011.210938 10132.8125 26034.804688 10201.289062 26034.804688 10280.390625 C 26034.804688 10283.789062 26034.6875 10287.109375 26034.6875 10290.390625 L 26038.007812 10290.390625 C 26037.890625 10287.109375 26037.8125 10283.789062 26037.8125 10280.390625 C 26037.8125 10200.507812 26061.914062 10131.484375 26096.796875 10099.21875 Z M 26096.796875 10099.21875 " transform="matrix(0.1, 0, 0, -0.1, 0, 2037)"/>
<path fill-rule="evenodd" fill="rgb(17.259216%, 18.041992%, 21.18988%)" fill-opacity="1" d="M 2555.648438 1081.734375 L 2650.238281 1081.734375 L 2650.238281 1084.484375 L 2555.648438 1084.484375 L 2555.648438 1081.734375 "/>
<path fill="none" stroke-width="2.16" stroke-linecap="butt" stroke-linejoin="miter" stroke="rgb(23.925781%, 24.705505%, 39.208984%)" stroke-opacity="1" stroke-miterlimit="22.9256" d="M 25556.484375 9552.65625 L 26502.382812 9552.65625 L 26502.382812 9525.15625 L 25556.484375 9525.15625 Z M 25556.484375 9552.65625 " transform="matrix(0.1, 0, 0, -0.1, 0, 2037)"/>
<path fill-rule="evenodd" fill="rgb(17.259216%, 18.041992%, 21.18988%)" fill-opacity="1" d="M 2564.359375 1084.3125 L 2642.351562 1084.3125 L 2642.351562 1087.0625 L 2564.359375 1087.0625 L 2564.359375 1084.3125 "/>
<path fill="none" stroke-width="2.16" stroke-linecap="butt" stroke-linejoin="miter" stroke="rgb(23.925781%, 24.705505%, 39.208984%)" stroke-opacity="1" stroke-miterlimit="22.9256" d="M 25643.59375 9526.875 L 26423.515625 9526.875 L 26423.515625 9499.375 L 25643.59375 9499.375 Z M 25643.59375 9526.875 " transform="matrix(0.1, 0, 0, -0.1, 0, 2037)"/>
<path fill-rule="evenodd" fill="rgb(17.259216%, 18.041992%, 21.18988%)" fill-opacity="1" d="M 2562 1079.179688 L 2644.96875 1079.179688 L 2644.96875 1081.925781 L 2562 1081.925781 L 2562 1079.179688 "/>
<path fill="none" stroke-width="2.16" stroke-linecap="butt" stroke-linejoin="miter" stroke="rgb(23.925781%, 24.705505%, 39.208984%)" stroke-opacity="1" stroke-miterlimit="22.9256" d="M 25620 9578.203125 L 26449.6875 9578.203125 L 26449.6875 9550.742188 L 25620 9550.742188 Z M 25620 9578.203125 " transform="matrix(0.1, 0, 0, -0.1, 0, 2037)"/>
<path fill-rule="evenodd" fill="rgb(17.259216%, 18.041992%, 21.18988%)" fill-opacity="1" d="M 330.140625 1068.152344 L 380.488281 1068.152344 L 417.542969 1423.113281 L 295.351562 1423.113281 L 330.140625 1068.152344 "/>
<path fill="none" stroke-width="2.16" stroke-linecap="butt" stroke-linejoin="miter" stroke="rgb(23.925781%, 24.705505%, 39.208984%)" stroke-opacity="1" stroke-miterlimit="22.9256" d="M 3301.40625 9688.476562 L 3804.882812 9688.476562 L 4175.429688 6138.867188 L 2953.515625 6138.867188 Z M 3301.40625 9688.476562 " transform="matrix(0.1, 0, 0, -0.1, 0, 2037)"/>
<path fill-rule="evenodd" fill="rgb(17.259216%, 18.041992%, 21.18988%)" fill-opacity="1" d="M 307.851562 1145.402344 L 402.441406 1145.402344 L 402.441406 1149.402344 L 307.851562 1149.402344 L 307.851562 1145.402344 "/>
<path fill="none" stroke-width="2.16" stroke-linecap="butt" stroke-linejoin="miter" stroke="rgb(23.925781%, 24.705505%, 39.208984%)" stroke-opacity="1" stroke-miterlimit="22.9256" d="M 3078.515625 8915.976562 L 4024.414062 8915.976562 L 4024.414062 8875.976562 L 3078.515625 8875.976562 Z M 3078.515625 8915.976562 " transform="matrix(0.1, 0, 0, -0.1, 0, 2037)"/>
<path fill-rule="evenodd" fill="rgb(17.259216%, 18.041992%, 21.18988%)" fill-opacity="1" d="M 314.074219 1149.285156 L 397.046875 1149.285156 L 397.046875 1153.285156 L 314.074219 1153.285156 L 314.074219 1149.285156 "/>
<path fill="none" stroke-width="2.16" stroke-linecap="butt" stroke-linejoin="miter" stroke="rgb(23.925781%, 24.705505%, 39.208984%)" stroke-opacity="1" stroke-miterlimit="22.9256" d="M 3140.742188 8877.148438 L 3970.46875 8877.148438 L 3970.46875 8837.148438 L 3140.742188 8837.148438 Z M 3140.742188 8877.148438 " transform="matrix(0.1, 0, 0, -0.1, 0, 2037)"/>
<path fill-rule="evenodd" fill="rgb(17.259216%, 18.041992%, 21.18988%)" fill-opacity="1" d="M 298.820312 1219.535156 L 413.925781 1219.535156 L 413.925781 1223.53125 L 298.820312 1223.53125 L 298.820312 1219.535156 "/>
<path fill="none" stroke-width="2.16" stroke-linecap="butt" stroke-linejoin="miter" stroke="rgb(23.925781%, 24.705505%, 39.208984%)" stroke-opacity="1" stroke-miterlimit="22.9256" d="M 2988.203125 8174.648438 L 4139.257812 8174.648438 L 4139.257812 8134.6875 L 2988.203125 8134.6875 Z M 2988.203125 8174.648438 " transform="matrix(0.1, 0, 0, -0.1, 0, 2037)"/>
<path fill-rule="evenodd" fill="rgb(17.259216%, 18.041992%, 21.18988%)" fill-opacity="1" d="M 305.714844 1223.417969 L 406.683594 1223.417969 L 406.683594 1227.414062 L 305.714844 1227.414062 L 305.714844 1223.417969 "/>
<path fill="none" stroke-width="2.16" stroke-linecap="butt" stroke-linejoin="miter" stroke="rgb(23.925781%, 24.705505%, 39.208984%)" stroke-opacity="1" stroke-miterlimit="22.9256" d="M 3057.148438 8135.820312 L 4066.835938 8135.820312 L 4066.835938 8095.859375 L 3057.148438 8095.859375 Z M 3057.148438 8135.820312 " transform="matrix(0.1, 0, 0, -0.1, 0, 2037)"/>
<path fill-rule="evenodd" fill="rgb(17.259216%, 18.041992%, 21.18988%)" fill-opacity="1" d="M 275.132812 1314.832031 L 441.054688 1314.832031 L 441.054688 1320.722656 L 275.132812 1320.722656 L 275.132812 1314.832031 "/>
<path fill="none" stroke-width="2.16" stroke-linecap="butt" stroke-linejoin="miter" stroke="rgb(23.925781%, 24.705505%, 39.208984%)" stroke-opacity="1" stroke-miterlimit="22.9256" d="M 2751.328125 7221.679688 L 4410.546875 7221.679688 L 4410.546875 7162.773438 L 2751.328125 7162.773438 Z M 2751.328125 7221.679688 " transform="matrix(0.1, 0, 0, -0.1, 0, 2037)"/>
<path fill-rule="evenodd" fill="rgb(17.259216%, 18.041992%, 21.18988%)" fill-opacity="1" d="M 284.6875 1320.691406 L 430.238281 1320.691406 L 430.238281 1326.585938 L 284.6875 1326.585938 L 284.6875 1320.691406 "/>
<path fill="none" stroke-width="2.16" stroke-linecap="butt" stroke-linejoin="miter" stroke="rgb(23.925781%, 24.705505%, 39.208984%)" stroke-opacity="1" stroke-miterlimit="22.9256" d="M 2846.875 7163.085938 L 4302.382812 7163.085938 L 4302.382812 7104.140625 L 2846.875 7104.140625 Z M 2846.875 7163.085938 " transform="matrix(0.1, 0, 0, -0.1, 0, 2037)"/>
<path fill-rule="evenodd" fill="rgb(17.259216%, 18.041992%, 21.18988%)" fill-opacity="1" d="M 362.050781 1014.441406 C 379.242188 1018.648438 392.566406 1040.085938 393.875 1066.535156 L 317.84375 1066.535156 C 319.160156 1039.890625 332.675781 1018.328125 350.054688 1014.351562 C 353.488281 1011.078125 355.851562 1004.238281 355.851562 996.328125 C 355.851562 995.988281 355.847656 995.660156 355.839844 995.328125 L 356.167969 995.328125 C 356.160156 995.660156 356.15625 995.988281 356.15625 996.328125 C 356.15625 1004.308594 358.5625 1011.210938 362.050781 1014.441406 "/>
<path fill="none" stroke-width="2.16" stroke-linecap="butt" stroke-linejoin="miter" stroke="rgb(23.925781%, 24.705505%, 39.208984%)" stroke-opacity="1" stroke-miterlimit="22.9256" d="M 3620.507812 10225.585938 C 3792.421875 10183.515625 3925.664062 9969.140625 3938.75 9704.648438 L 3178.4375 9704.648438 C 3191.601562 9971.09375 3326.757812 10186.71875 3500.546875 10226.484375 C 3534.882812 10259.21875 3558.515625 10327.617188 3558.515625 10406.71875 C 3558.515625 10410.117188 3558.476562 10413.398438 3558.398438 10416.71875 L 3561.679688 10416.71875 C 3561.601562 10413.398438 3561.5625 10410.117188 3561.5625 10406.71875 C 3561.5625 10326.914062 3585.625 10257.890625 3620.507812 10225.585938 Z M 3620.507812 10225.585938 " transform="matrix(0.1, 0, 0, -0.1, 0, 2037)"/>
<path fill-rule="evenodd" fill="rgb(17.259216%, 18.041992%, 21.18988%)" fill-opacity="1" d="M 308.023438 1069.101562 L 402.609375 1069.101562 L 402.609375 1071.851562 L 308.023438 1071.851562 L 308.023438 1069.101562 "/>
<path fill="none" stroke-width="2.16" stroke-linecap="butt" stroke-linejoin="miter" stroke="rgb(23.925781%, 24.705505%, 39.208984%)" stroke-opacity="1" stroke-miterlimit="22.9256" d="M 3080.234375 9678.984375 L 4026.09375 9678.984375 L 4026.09375 9651.484375 L 3080.234375 9651.484375 Z M 3080.234375 9678.984375 " transform="matrix(0.1, 0, 0, -0.1, 0, 2037)"/>
<path fill-rule="evenodd" fill="rgb(17.259216%, 18.041992%, 21.18988%)" fill-opacity="1" d="M 316.734375 1071.679688 L 394.726562 1071.679688 L 394.726562 1074.425781 L 316.734375 1074.425781 L 316.734375 1071.679688 "/>
<path fill="none" stroke-width="2.16" stroke-linecap="butt" stroke-linejoin="miter" stroke="rgb(23.925781%, 24.705505%, 39.208984%)" stroke-opacity="1" stroke-miterlimit="22.9256" d="M 3167.34375 9653.203125 L 3947.265625 9653.203125 L 3947.265625 9625.742188 L 3167.34375 9625.742188 Z M 3167.34375 9653.203125 " transform="matrix(0.1, 0, 0, -0.1, 0, 2037)"/>
<path fill-rule="evenodd" fill="rgb(17.259216%, 18.041992%, 21.18988%)" fill-opacity="1" d="M 314.375 1066.542969 L 397.347656 1066.542969 L 397.347656 1069.292969 L 314.375 1069.292969 L 314.375 1066.542969 "/>
<path fill="none" stroke-width="2.16" stroke-linecap="butt" stroke-linejoin="miter" stroke="rgb(23.925781%, 24.705505%, 39.208984%)" stroke-opacity="1" stroke-miterlimit="22.9256" d="M 3143.75 9704.570312 L 3973.476562 9704.570312 L 3973.476562 9677.070312 L 3143.75 9677.070312 Z M 3143.75 9704.570312 " transform="matrix(0.1, 0, 0, -0.1, 0, 2037)"/>
<path fill-rule="evenodd" fill="rgb(17.259216%, 18.041992%, 21.18988%)" fill-opacity="1" d="M 1938.589844 1420.109375 L 1057.980469 1420.109375 L 1057.980469 1863.160156 L 1938.589844 1863.160156 L 1938.589844 1420.109375 "/>
<path fill="none" stroke-width="2.16" stroke-linecap="butt" stroke-linejoin="miter" stroke="rgb(23.925781%, 24.705505%, 39.208984%)" stroke-opacity="1" stroke-miterlimit="22.9256" d="M 19385.898438 6168.90625 L 10579.804688 6168.90625 L 10579.804688 1738.398438 L 19385.898438 1738.398438 Z M 19385.898438 6168.90625 " transform="matrix(0.1, 0, 0, -0.1, 0, 2037)"/>
<path fill-rule="evenodd" fill="rgb(17.259216%, 18.041992%, 21.18988%)" fill-opacity="1" d="M 1517 1440.832031 L 1502.859375 1440.832031 C 1433.949219 1440.832031 1377.570312 1509.246094 1377.570312 1592.867188 L 1377.570312 1855.246094 L 1642.28125 1855.246094 L 1642.28125 1592.867188 C 1642.28125 1509.246094 1585.910156 1440.832031 1517 1440.832031 "/>
<path fill="none" stroke-width="2.16" stroke-linecap="butt" stroke-linejoin="miter" stroke="rgb(23.925781%, 24.705505%, 39.208984%)" stroke-opacity="1" stroke-miterlimit="22.9256" d="M 15170 5961.679688 L 15028.59375 5961.679688 C 14339.492188 5961.679688 13775.703125 5277.539062 13775.703125 4441.328125 L 13775.703125 1817.539062 L 16422.8125 1817.539062 L 16422.8125 4441.328125 C 16422.8125 5277.539062 15859.101562 5961.679688 15170 5961.679688 Z M 15170 5961.679688 " transform="matrix(0.1, 0, 0, -0.1, 0, 2037)"/>
<path fill-rule="evenodd" fill="rgb(17.259216%, 18.041992%, 21.18988%)" fill-opacity="1" d="M 1055.738281 1363.304688 L 1919.429688 1363.304688 L 1919.429688 1383.625 L 1055.738281 1383.625 L 1055.738281 1363.304688 "/>
<path fill="none" stroke-width="2.16" stroke-linecap="butt" stroke-linejoin="miter" stroke="rgb(23.925781%, 24.705505%, 39.208984%)" stroke-opacity="1" stroke-miterlimit="22.9256" d="M 10557.382812 6736.953125 L 19194.296875 6736.953125 L 19194.296875 6533.75 L 10557.382812 6533.75 Z M 10557.382812 6736.953125 " transform="matrix(0.1, 0, 0, -0.1, 0, 2037)"/>
<path fill-rule="evenodd" fill="rgb(17.259216%, 18.041992%, 21.18988%)" fill-opacity="1" d="M 1050.480469 1401.441406 L 1914.171875 1401.441406 L 1914.171875 1421.761719 L 1050.480469 1421.761719 L 1050.480469 1401.441406 "/>
<path fill="none" stroke-width="2.16" stroke-linecap="butt" stroke-linejoin="miter" stroke="rgb(23.925781%, 24.705505%, 39.208984%)" stroke-opacity="1" stroke-miterlimit="22.9256" d="M 10504.804688 6355.585938 L 19141.71875 6355.585938 L 19141.71875 6152.382812 L 10504.804688 6152.382812 Z M 10504.804688 6355.585938 " transform="matrix(0.1, 0, 0, -0.1, 0, 2037)"/>
<path fill-rule="evenodd" fill="rgb(17.259216%, 18.041992%, 21.18988%)" fill-opacity="1" d="M 1540.519531 1061.089844 C 1701.488281 1085.472656 1826.269531 1209.679688 1838.511719 1362.945312 L 1126.558594 1362.945312 C 1138.890625 1208.535156 1265.449219 1083.617188 1428.171875 1060.558594 C 1460.328125 1041.617188 1482.449219 981 1482.449219 957.101562 L 1485.320312 957.679688 C 1485.320312 1003.96875 1507.871094 1042.363281 1540.519531 1061.089844 "/>
<path fill="none" stroke-width="2.16" stroke-linecap="butt" stroke-linejoin="miter" stroke="rgb(23.925781%, 24.705505%, 39.208984%)" stroke-opacity="1" stroke-miterlimit="22.9256" d="M 15405.195312 9759.101562 C 17014.882812 9515.273438 18262.695312 8273.203125 18385.117188 6740.546875 L 11265.585938 6740.546875 C 11388.90625 8284.648438 12654.492188 9533.828125 14281.71875 9764.414062 C 14603.28125 9953.828125 14824.492188 10560 14824.492188 10798.984375 L 14853.203125 10793.203125 C 14853.203125 10330.3125 15078.710938 9946.367188 15405.195312 9759.101562 Z M 15405.195312 9759.101562 " transform="matrix(0.1, 0, 0, -0.1, 0, 2037)"/>
<path fill-rule="evenodd" fill="rgb(17.259216%, 18.041992%, 21.18988%)" fill-opacity="1" d="M 1061.929688 1469.332031 L 295.222656 1469.332031 L 295.222656 1855.078125 L 1061.929688 1855.078125 L 1061.929688 1469.332031 "/>
<path fill="none" stroke-width="2.16" stroke-linecap="butt" stroke-linejoin="miter" stroke="rgb(23.925781%, 24.705505%, 39.208984%)" stroke-opacity="1" stroke-miterlimit="22.9256" d="M 10619.296875 5676.679688 L 2952.226562 5676.679688 L 2952.226562 1819.21875 L 10619.296875 1819.21875 Z M 10619.296875 5676.679688 " transform="matrix(0.1, 0, 0, -0.1, 0, 2037)"/>
<path fill-rule="evenodd" fill="rgb(17.259216%, 18.041992%, 21.18988%)" fill-opacity="1" d="M 692.109375 1539.710938 L 684.03125 1539.710938 C 644.671875 1539.710938 612.46875 1590.800781 612.46875 1653.246094 L 612.46875 1849.195312 L 763.671875 1849.195312 L 763.671875 1653.246094 C 763.671875 1590.800781 731.46875 1539.710938 692.109375 1539.710938 "/>
<path fill="none" stroke-width="2.16" stroke-linecap="butt" stroke-linejoin="miter" stroke="rgb(23.925781%, 24.705505%, 39.208984%)" stroke-opacity="1" stroke-miterlimit="22.9256" d="M 6921.09375 4972.890625 L 6840.3125 4972.890625 C 6446.71875 4972.890625 6124.6875 4461.992188 6124.6875 3837.539062 L 6124.6875 1878.046875 L 7636.71875 1878.046875 L 7636.71875 3837.539062 C 7636.71875 4461.992188 7314.6875 4972.890625 6921.09375 4972.890625 Z M 6921.09375 4972.890625 " transform="matrix(0.1, 0, 0, -0.1, 0, 2037)"/>
<path fill-rule="evenodd" fill="rgb(17.259216%, 18.041992%, 21.18988%)" fill-opacity="1" d="M 625.1875 1157.679688 C 532.085938 1178.472656 459.917969 1284.371094 452.835938 1415.046875 L 864.605469 1415.046875 C 857.472656 1283.394531 784.273438 1176.890625 690.164062 1157.230469 C 671.566406 1141.078125 658.761719 1107.273438 658.761719 1068.175781 C 658.761719 1066.519531 658.785156 1064.871094 658.832031 1063.238281 L 657.050781 1063.238281 C 657.09375 1064.871094 657.117188 1066.519531 657.117188 1068.175781 C 657.117188 1107.640625 644.070312 1141.714844 625.1875 1157.679688 "/>
<path fill="none" stroke-width="2.16" stroke-linecap="butt" stroke-linejoin="miter" stroke="rgb(23.925781%, 24.705505%, 39.208984%)" stroke-opacity="1" stroke-miterlimit="22.9256" d="M 6251.875 8793.203125 C 5320.859375 8585.273438 4599.179688 7526.289062 4528.359375 6219.53125 L 8646.054688 6219.53125 C 8574.726562 7536.054688 7842.734375 8601.09375 6901.640625 8797.695312 C 6715.664062 8959.21875 6587.617188 9297.265625 6587.617188 9688.242188 C 6587.617188 9704.804688 6587.851562 9721.289062 6588.320312 9737.617188 L 6570.507812 9737.617188 C 6570.9375 9721.289062 6571.171875 9704.804688 6571.171875 9688.242188 C 6571.171875 9293.59375 6440.703125 8952.851562 6251.875 8793.203125 Z M 6251.875 8793.203125 " transform="matrix(0.1, 0, 0, -0.1, 0, 2037)"/>
<path fill-rule="evenodd" fill="rgb(17.259216%, 18.041992%, 21.18988%)" fill-opacity="1" d="M 398.296875 1616.390625 L 393.003906 1616.390625 C 367.214844 1616.390625 346.117188 1654.734375 346.117188 1701.597656 L 346.117188 1848.652344 L 445.183594 1848.652344 L 445.183594 1701.597656 C 445.183594 1654.734375 424.085938 1616.390625 398.296875 1616.390625 "/>
<path fill="none" stroke-width="2.16" stroke-linecap="butt" stroke-linejoin="miter" stroke="rgb(23.925781%, 24.705505%, 39.208984%)" stroke-opacity="1" stroke-miterlimit="22.9256" d="M 3982.96875 4206.09375 L 3930.039062 4206.09375 C 3672.148438 4206.09375 3461.171875 3822.65625 3461.171875 3354.023438 L 3461.171875 1883.476562 L 4451.835938 1883.476562 L 4451.835938 3354.023438 C 4451.835938 3822.65625 4240.859375 4206.09375 3982.96875 4206.09375 Z M 3982.96875 4206.09375 " transform="matrix(0.1, 0, 0, -0.1, 0, 2037)"/>
<path fill-rule="evenodd" fill="rgb(17.259216%, 18.041992%, 21.18988%)" fill-opacity="1" d="M 1513.941406 1530.523438 L 1505.921875 1530.523438 C 1466.839844 1530.523438 1434.859375 1584.132812 1434.859375 1649.652344 L 1434.859375 1855.246094 L 1584.988281 1855.246094 L 1584.988281 1649.652344 C 1584.988281 1584.132812 1553.019531 1530.523438 1513.941406 1530.523438 "/>
<path fill="none" stroke-width="2.16" stroke-linecap="butt" stroke-linejoin="miter" stroke="rgb(23.925781%, 24.705505%, 39.208984%)" stroke-opacity="1" stroke-miterlimit="22.9256" d="M 15139.414062 5064.765625 L 15059.21875 5064.765625 C 14668.398438 5064.765625 14348.59375 4528.671875 14348.59375 3873.476562 L 14348.59375 1817.539062 L 15849.882812 1817.539062 L 15849.882812 3873.476562 C 15849.882812 4528.671875 15530.195312 5064.765625 15139.414062 5064.765625 Z M 15139.414062 5064.765625 " transform="matrix(0.1, 0, 0, -0.1, 0, 2037)"/>
<path fill-rule="evenodd" fill="rgb(17.259216%, 18.041992%, 21.18988%)" fill-opacity="1" d="M 376.3125 1664.90625 L 373.246094 1664.90625 C 358.324219 1664.90625 346.117188 1687.09375 346.117188 1714.210938 L 346.117188 1799.304688 L 403.441406 1799.304688 L 403.441406 1714.210938 C 403.441406 1687.09375 391.234375 1664.90625 376.3125 1664.90625 "/>
<path fill="none" stroke-width="2.16" stroke-linecap="butt" stroke-linejoin="miter" stroke="rgb(23.925781%, 24.705505%, 39.208984%)" stroke-opacity="1" stroke-miterlimit="22.9256" d="M 3763.125 3720.9375 L 3732.460938 3720.9375 C 3583.242188 3720.9375 3461.171875 3499.0625 3461.171875 3227.890625 L 3461.171875 2376.953125 L 4034.414062 2376.953125 L 4034.414062 3227.890625 C 4034.414062 3499.0625 3912.34375 3720.9375 3763.125 3720.9375 Z M 3763.125 3720.9375 " transform="matrix(0.1, 0, 0, -0.1, 0, 2037)"/>
<path fill-rule="evenodd" fill="rgb(17.259216%, 18.041992%, 21.18988%)" fill-opacity="1" d="M 517.984375 1617.667969 L 512.691406 1617.667969 C 486.902344 1617.667969 465.804688 1656.011719 465.804688 1702.875 L 465.804688 1849.925781 L 564.871094 1849.925781 L 564.871094 1702.875 C 564.871094 1656.011719 543.773438 1617.667969 517.984375 1617.667969 "/>
<path fill="none" stroke-width="2.16" stroke-linecap="butt" stroke-linejoin="miter" stroke="rgb(23.925781%, 24.705505%, 39.208984%)" stroke-opacity="1" stroke-miterlimit="22.9256" d="M 5179.84375 4193.320312 L 5126.914062 4193.320312 C 4869.023438 4193.320312 4658.046875 3809.882812 4658.046875 3341.25 L 4658.046875 1870.742188 L 5648.710938 1870.742188 L 5648.710938 3341.25 C 5648.710938 3809.882812 5437.734375 4193.320312 5179.84375 4193.320312 Z M 5179.84375 4193.320312 " transform="matrix(0.1, 0, 0, -0.1, 0, 2037)"/>
<path fill-rule="evenodd" fill="rgb(17.259216%, 18.041992%, 21.18988%)" fill-opacity="1" d="M 495.996094 1666.179688 L 492.9375 1666.179688 C 478.011719 1666.179688 465.804688 1688.367188 465.804688 1715.488281 L 465.804688 1800.578125 L 523.128906 1800.578125 L 523.128906 1715.488281 C 523.128906 1688.367188 510.921875 1666.179688 495.996094 1666.179688 "/>
<path fill="none" stroke-width="2.16" stroke-linecap="butt" stroke-linejoin="miter" stroke="rgb(23.925781%, 24.705505%, 39.208984%)" stroke-opacity="1" stroke-miterlimit="22.9256" d="M 4959.960938 3708.203125 L 4929.375 3708.203125 C 4780.117188 3708.203125 4658.046875 3486.328125 4658.046875 3215.117188 L 4658.046875 2364.21875 L 5231.289062 2364.21875 L 5231.289062 3215.117188 C 5231.289062 3486.328125 5109.21875 3708.203125 4959.960938 3708.203125 Z M 4959.960938 3708.203125 " transform="matrix(0.1, 0, 0, -0.1, 0, 2037)"/>
<path fill-rule="evenodd" fill="rgb(17.259216%, 18.041992%, 21.18988%)" fill-opacity="1" d="M 862.039062 1618.445312 L 856.742188 1618.445312 C 830.957031 1618.445312 809.855469 1656.789062 809.855469 1703.65625 L 809.855469 1850.707031 L 908.925781 1850.707031 L 908.925781 1703.65625 C 908.925781 1656.789062 887.824219 1618.445312 862.039062 1618.445312 "/>
<path fill="none" stroke-width="2.16" stroke-linecap="butt" stroke-linejoin="miter" stroke="rgb(23.925781%, 24.705505%, 39.208984%)" stroke-opacity="1" stroke-miterlimit="22.9256" d="M 8620.390625 4185.546875 L 8567.421875 4185.546875 C 8309.570312 4185.546875 8098.554688 3802.109375 8098.554688 3333.4375 L 8098.554688 1862.929688 L 9089.257812 1862.929688 L 9089.257812 3333.4375 C 9089.257812 3802.109375 8878.242188 4185.546875 8620.390625 4185.546875 Z M 8620.390625 4185.546875 " transform="matrix(0.1, 0, 0, -0.1, 0, 2037)"/>
<path fill-rule="evenodd" fill="rgb(17.259216%, 18.041992%, 21.18988%)" fill-opacity="1" d="M 840.050781 1666.960938 L 836.988281 1666.960938 C 822.066406 1666.960938 809.855469 1689.148438 809.855469 1716.265625 L 809.855469 1801.359375 L 867.183594 1801.359375 L 867.183594 1716.265625 C 867.183594 1689.148438 854.976562 1666.960938 840.050781 1666.960938 "/>
<path fill="none" stroke-width="2.16" stroke-linecap="butt" stroke-linejoin="miter" stroke="rgb(23.925781%, 24.705505%, 39.208984%)" stroke-opacity="1" stroke-miterlimit="22.9256" d="M 8400.507812 3700.390625 L 8369.882812 3700.390625 C 8220.664062 3700.390625 8098.554688 3478.515625 8098.554688 3207.34375 L 8098.554688 2356.40625 L 8671.835938 2356.40625 L 8671.835938 3207.34375 C 8671.835938 3478.515625 8549.765625 3700.390625 8400.507812 3700.390625 Z M 8400.507812 3700.390625 " transform="matrix(0.1, 0, 0, -0.1, 0, 2037)"/>
<path fill-rule="evenodd" fill="rgb(17.259216%, 18.041992%, 21.18988%)" fill-opacity="1" d="M 981.726562 1618.488281 L 976.429688 1618.488281 C 950.644531 1618.488281 929.542969 1656.832031 929.542969 1703.695312 L 929.542969 1850.75 L 1028.609375 1850.75 L 1028.609375 1703.695312 C 1028.609375 1656.832031 1007.511719 1618.488281 981.726562 1618.488281 "/>
<path fill="none" stroke-width="2.16" stroke-linecap="butt" stroke-linejoin="miter" stroke="rgb(23.925781%, 24.705505%, 39.208984%)" stroke-opacity="1" stroke-miterlimit="22.9256" d="M 9817.265625 4185.117188 L 9764.296875 4185.117188 C 9506.445312 4185.117188 9295.429688 3801.679688 9295.429688 3333.046875 L 9295.429688 1862.5 L 10286.09375 1862.5 L 10286.09375 3333.046875 C 10286.09375 3801.679688 10075.117188 4185.117188 9817.265625 4185.117188 Z M 9817.265625 4185.117188 " transform="matrix(0.1, 0, 0, -0.1, 0, 2037)"/>
<path fill-rule="evenodd" fill="rgb(17.259216%, 18.041992%, 21.18988%)" fill-opacity="1" d="M 959.738281 1668.238281 L 956.675781 1668.238281 C 941.753906 1668.238281 929.542969 1690.425781 929.542969 1717.542969 L 929.542969 1802.636719 L 986.871094 1802.636719 L 986.871094 1717.542969 C 986.871094 1690.425781 974.660156 1668.238281 959.738281 1668.238281 "/>
<path fill="none" stroke-width="2.16" stroke-linecap="butt" stroke-linejoin="miter" stroke="rgb(23.925781%, 24.705505%, 39.208984%)" stroke-opacity="1" stroke-miterlimit="22.9256" d="M 9597.382812 3687.617188 L 9566.757812 3687.617188 C 9417.539062 3687.617188 9295.429688 3465.742188 9295.429688 3194.570312 L 9295.429688 2343.632812 L 9868.710938 2343.632812 L 9868.710938 3194.570312 C 9868.710938 3465.742188 9746.601562 3687.617188 9597.382812 3687.617188 Z M 9597.382812 3687.617188 " transform="matrix(0.1, 0, 0, -0.1, 0, 2037)"/>
<path fill-rule="evenodd" fill="rgb(17.259216%, 18.041992%, 21.18988%)" fill-opacity="1" d="M 690.332031 1606.585938 L 685.808594 1606.585938 C 663.773438 1606.585938 645.746094 1646.816406 645.746094 1695.988281 L 645.746094 1850.28125 L 730.394531 1850.28125 L 730.394531 1695.988281 C 730.394531 1646.816406 712.367188 1606.585938 690.332031 1606.585938 "/>
<path fill="none" stroke-width="2.16" stroke-linecap="butt" stroke-linejoin="miter" stroke="rgb(23.925781%, 24.705505%, 39.208984%)" stroke-opacity="1" stroke-miterlimit="22.9256" d="M 6903.320312 4304.140625 L 6858.085938 4304.140625 C 6637.734375 4304.140625 6457.460938 3901.835938 6457.460938 3410.117188 L 6457.460938 1867.1875 L 7303.945312 1867.1875 L 7303.945312 3410.117188 C 7303.945312 3901.835938 7123.671875 4304.140625 6903.320312 4304.140625 Z M 6903.320312 4304.140625 " transform="matrix(0.1, 0, 0, -0.1, 0, 2037)"/>
<path fill-rule="evenodd" fill="rgb(17.259216%, 18.041992%, 21.18988%)" fill-opacity="1" d="M 1780.589844 1543.855469 L 1773.550781 1543.855469 C 1739.25 1543.855469 1711.191406 1594.851562 1711.191406 1657.183594 L 1711.191406 1852.769531 L 1842.949219 1852.769531 L 1842.949219 1657.183594 C 1842.949219 1594.851562 1814.890625 1543.855469 1780.589844 1543.855469 "/>
<path fill="none" stroke-width="2.16" stroke-linecap="butt" stroke-linejoin="miter" stroke="rgb(23.925781%, 24.705505%, 39.208984%)" stroke-opacity="1" stroke-miterlimit="22.9256" d="M 17805.898438 4931.445312 L 17735.507812 4931.445312 C 17392.5 4931.445312 17111.914062 4421.484375 17111.914062 3798.164062 L 17111.914062 1842.304688 L 18429.492188 1842.304688 L 18429.492188 3798.164062 C 18429.492188 4421.484375 18148.90625 4931.445312 17805.898438 4931.445312 Z M 17805.898438 4931.445312 " transform="matrix(0.1, 0, 0, -0.1, 0, 2037)"/>
<path fill-rule="evenodd" fill="rgb(17.259216%, 18.041992%, 21.18988%)" fill-opacity="1" d="M 1751.351562 1606.898438 L 1747.269531 1606.898438 C 1727.429688 1606.898438 1711.191406 1636.40625 1711.191406 1672.476562 L 1711.191406 1785.652344 L 1787.429688 1785.652344 L 1787.429688 1672.476562 C 1787.429688 1636.40625 1771.199219 1606.898438 1751.351562 1606.898438 "/>
<path fill="none" stroke-width="2.16" stroke-linecap="butt" stroke-linejoin="miter" stroke="rgb(23.925781%, 24.705505%, 39.208984%)" stroke-opacity="1" stroke-miterlimit="22.9256" d="M 17513.515625 4301.015625 L 17472.695312 4301.015625 C 17274.296875 4301.015625 17111.914062 4005.9375 17111.914062 3645.234375 L 17111.914062 2513.476562 L 17874.296875 2513.476562 L 17874.296875 3645.234375 C 17874.296875 4005.9375 17711.992188 4301.015625 17513.515625 4301.015625 Z M 17513.515625 4301.015625 " transform="matrix(0.1, 0, 0, -0.1, 0, 2037)"/>
<path fill-rule="evenodd" fill="rgb(17.259216%, 18.041992%, 21.18988%)" fill-opacity="1" d="M 1232.589844 1546.046875 L 1225.550781 1546.046875 C 1191.25 1546.046875 1163.191406 1597.042969 1163.191406 1659.375 L 1163.191406 1854.960938 L 1294.949219 1854.960938 L 1294.949219 1659.375 C 1294.949219 1597.042969 1266.890625 1546.046875 1232.589844 1546.046875 "/>
<path fill="none" stroke-width="2.16" stroke-linecap="butt" stroke-linejoin="miter" stroke="rgb(23.925781%, 24.705505%, 39.208984%)" stroke-opacity="1" stroke-miterlimit="22.9256" d="M 12325.898438 4909.53125 L 12255.507812 4909.53125 C 11912.5 4909.53125 11631.914062 4399.570312 11631.914062 3776.25 L 11631.914062 1820.390625 L 12949.492188 1820.390625 L 12949.492188 3776.25 C 12949.492188 4399.570312 12668.90625 4909.53125 12325.898438 4909.53125 Z M 12325.898438 4909.53125 " transform="matrix(0.1, 0, 0, -0.1, 0, 2037)"/>
<path fill-rule="evenodd" fill="rgb(17.259216%, 18.041992%, 21.18988%)" fill-opacity="1" d="M 1203.351562 1610.570312 L 1199.269531 1610.570312 C 1179.429688 1610.570312 1163.191406 1640.082031 1163.191406 1676.148438 L 1163.191406 1789.328125 L 1239.429688 1789.328125 L 1239.429688 1676.148438 C 1239.429688 1640.082031 1223.191406 1610.570312 1203.351562 1610.570312 "/>
<path fill="none" stroke-width="2.16" stroke-linecap="butt" stroke-linejoin="miter" stroke="rgb(23.925781%, 24.705505%, 39.208984%)" stroke-opacity="1" stroke-miterlimit="22.9256" d="M 12033.515625 4264.296875 L 11992.695312 4264.296875 C 11794.296875 4264.296875 11631.914062 3969.179688 11631.914062 3608.515625 L 11631.914062 2476.71875 L 12394.296875 2476.71875 L 12394.296875 3608.515625 C 12394.296875 3969.179688 12231.914062 4264.296875 12033.515625 4264.296875 Z M 12033.515625 4264.296875 " transform="matrix(0.1, 0, 0, -0.1, 0, 2037)"/>
<path fill-rule="evenodd" fill="rgb(17.259216%, 18.041992%, 21.18988%)" fill-opacity="1" d="M 2698.640625 1468.957031 L 1931.941406 1468.957031 L 1931.941406 1854.703125 L 2698.640625 1854.703125 L 2698.640625 1468.957031 "/>
<path fill="none" stroke-width="2.16" stroke-linecap="butt" stroke-linejoin="miter" stroke="rgb(23.925781%, 24.705505%, 39.208984%)" stroke-opacity="1" stroke-miterlimit="22.9256" d="M 26986.40625 5680.429688 L 19319.414062 5680.429688 L 19319.414062 1822.96875 L 26986.40625 1822.96875 Z M 26986.40625 5680.429688 " transform="matrix(0.1, 0, 0, -0.1, 0, 2037)"/>
<path fill-rule="evenodd" fill="rgb(17.259216%, 18.041992%, 21.18988%)" fill-opacity="1" d="M 2334.269531 1542.898438 L 2326.191406 1542.898438 C 2286.828125 1542.898438 2254.628906 1593.988281 2254.628906 1656.4375 L 2254.628906 1852.382812 L 2405.828125 1852.382812 L 2405.828125 1656.4375 C 2405.828125 1593.988281 2373.628906 1542.898438 2334.269531 1542.898438 "/>
<path fill="none" stroke-width="2.16" stroke-linecap="butt" stroke-linejoin="miter" stroke="rgb(23.925781%, 24.705505%, 39.208984%)" stroke-opacity="1" stroke-miterlimit="22.9256" d="M 23342.695312 4941.015625 L 23261.914062 4941.015625 C 22868.28125 4941.015625 22546.289062 4430.117188 22546.289062 3805.625 L 22546.289062 1846.171875 L 24058.28125 1846.171875 L 24058.28125 3805.625 C 24058.28125 4430.117188 23736.289062 4941.015625 23342.695312 4941.015625 Z M 23342.695312 4941.015625 " transform="matrix(0.1, 0, 0, -0.1, 0, 2037)"/>
<path fill-rule="evenodd" fill="rgb(17.259216%, 18.041992%, 21.18988%)" fill-opacity="1" d="M 2040.460938 1622.046875 L 2035.160156 1622.046875 C 2009.371094 1622.046875 1988.28125 1660.390625 1988.28125 1707.253906 L 1988.28125 1854.308594 L 2087.339844 1854.308594 L 2087.339844 1707.253906 C 2087.339844 1660.390625 2066.238281 1622.046875 2040.460938 1622.046875 "/>
<path fill="none" stroke-width="2.16" stroke-linecap="butt" stroke-linejoin="miter" stroke="rgb(23.925781%, 24.705505%, 39.208984%)" stroke-opacity="1" stroke-miterlimit="22.9256" d="M 20404.609375 4149.53125 L 20351.601562 4149.53125 C 20093.710938 4149.53125 19882.8125 3766.09375 19882.8125 3297.460938 L 19882.8125 1826.914062 L 20873.398438 1826.914062 L 20873.398438 3297.460938 C 20873.398438 3766.09375 20662.382812 4149.53125 20404.609375 4149.53125 Z M 20404.609375 4149.53125 " transform="matrix(0.1, 0, 0, -0.1, 0, 2037)"/>
<path fill-rule="evenodd" fill="rgb(17.259216%, 18.041992%, 21.18988%)" fill-opacity="1" d="M 2018.46875 1669.328125 L 2015.410156 1669.328125 C 2000.480469 1669.328125 1988.28125 1691.515625 1988.28125 1718.632812 L 1988.28125 1803.726562 L 2045.601562 1803.726562 L 2045.601562 1718.632812 C 2045.601562 1691.515625 2033.390625 1669.328125 2018.46875 1669.328125 "/>
<path fill="none" stroke-width="2.16" stroke-linecap="butt" stroke-linejoin="miter" stroke="rgb(23.925781%, 24.705505%, 39.208984%)" stroke-opacity="1" stroke-miterlimit="22.9256" d="M 20184.6875 3676.71875 L 20154.101562 3676.71875 C 20004.804688 3676.71875 19882.8125 3454.84375 19882.8125 3183.671875 L 19882.8125 2332.734375 L 20456.015625 2332.734375 L 20456.015625 3183.671875 C 20456.015625 3454.84375 20333.90625 3676.71875 20184.6875 3676.71875 Z M 20184.6875 3676.71875 " transform="matrix(0.1, 0, 0, -0.1, 0, 2037)"/>
<path fill-rule="evenodd" fill="rgb(17.259216%, 18.041992%, 21.18988%)" fill-opacity="1" d="M 2160.140625 1622.089844 L 2154.851562 1622.089844 C 2129.058594 1622.089844 2107.960938 1660.433594 2107.960938 1707.296875 L 2107.960938 1854.347656 L 2207.03125 1854.347656 L 2207.03125 1707.296875 C 2207.03125 1660.433594 2185.929688 1622.089844 2160.140625 1622.089844 "/>
<path fill="none" stroke-width="2.16" stroke-linecap="butt" stroke-linejoin="miter" stroke="rgb(23.925781%, 24.705505%, 39.208984%)" stroke-opacity="1" stroke-miterlimit="22.9256" d="M 21601.40625 4149.101562 L 21548.515625 4149.101562 C 21290.585938 4149.101562 21079.609375 3765.664062 21079.609375 3297.03125 L 21079.609375 1826.523438 L 22070.3125 1826.523438 L 22070.3125 3297.03125 C 22070.3125 3765.664062 21859.296875 4149.101562 21601.40625 4149.101562 Z M 21601.40625 4149.101562 " transform="matrix(0.1, 0, 0, -0.1, 0, 2037)"/>
<path fill-rule="evenodd" fill="rgb(17.259216%, 18.041992%, 21.18988%)" fill-opacity="1" d="M 2138.160156 1670.601562 L 2135.089844 1670.601562 C 2120.171875 1670.601562 2107.960938 1692.789062 2107.960938 1719.910156 L 2107.960938 1805.003906 L 2165.289062 1805.003906 L 2165.289062 1719.910156 C 2165.289062 1692.789062 2153.078125 1670.601562 2138.160156 1670.601562 "/>
<path fill="none" stroke-width="2.16" stroke-linecap="butt" stroke-linejoin="miter" stroke="rgb(23.925781%, 24.705505%, 39.208984%)" stroke-opacity="1" stroke-miterlimit="22.9256" d="M 21381.601562 3663.984375 L 21350.898438 3663.984375 C 21201.71875 3663.984375 21079.609375 3442.109375 21079.609375 3170.898438 L 21079.609375 2319.960938 L 21652.890625 2319.960938 L 21652.890625 3170.898438 C 21652.890625 3442.109375 21530.78125 3663.984375 21381.601562 3663.984375 Z M 21381.601562 3663.984375 " transform="matrix(0.1, 0, 0, -0.1, 0, 2037)"/>
<path fill-rule="evenodd" fill="rgb(17.259216%, 18.041992%, 21.18988%)" fill-opacity="1" d="M 2504.199219 1622.867188 L 2498.898438 1622.867188 C 2473.121094 1622.867188 2452.019531 1661.210938 2452.019531 1708.078125 L 2452.019531 1855.128906 L 2551.078125 1855.128906 L 2551.078125 1708.078125 C 2551.078125 1661.210938 2529.980469 1622.867188 2504.199219 1622.867188 "/>
<path fill="none" stroke-width="2.16" stroke-linecap="butt" stroke-linejoin="miter" stroke="rgb(23.925781%, 24.705505%, 39.208984%)" stroke-opacity="1" stroke-miterlimit="22.9256" d="M 25041.992188 4141.328125 L 24988.984375 4141.328125 C 24731.210938 4141.328125 24520.195312 3757.890625 24520.195312 3289.21875 L 24520.195312 1818.710938 L 25510.78125 1818.710938 L 25510.78125 3289.21875 C 25510.78125 3757.890625 25299.804688 4141.328125 25041.992188 4141.328125 Z M 25041.992188 4141.328125 " transform="matrix(0.1, 0, 0, -0.1, 0, 2037)"/>
<path fill-rule="evenodd" fill="rgb(17.259216%, 18.041992%, 21.18988%)" fill-opacity="1" d="M 2482.210938 1671.382812 L 2479.148438 1671.382812 C 2464.230469 1671.382812 2452.019531 1693.570312 2452.019531 1720.6875 L 2452.019531 1805.78125 L 2509.339844 1805.78125 L 2509.339844 1720.6875 C 2509.339844 1693.570312 2497.128906 1671.382812 2482.210938 1671.382812 "/>
<path fill="none" stroke-width="2.16" stroke-linecap="butt" stroke-linejoin="miter" stroke="rgb(23.925781%, 24.705505%, 39.208984%)" stroke-opacity="1" stroke-miterlimit="22.9256" d="M 24822.109375 3656.171875 L 24791.484375 3656.171875 C 24642.304688 3656.171875 24520.195312 3434.296875 24520.195312 3163.125 L 24520.195312 2312.1875 L 25093.398438 2312.1875 L 25093.398438 3163.125 C 25093.398438 3434.296875 24971.289062 3656.171875 24822.109375 3656.171875 Z M 24822.109375 3656.171875 " transform="matrix(0.1, 0, 0, -0.1, 0, 2037)"/>
<path fill-rule="evenodd" fill="rgb(17.259216%, 18.041992%, 21.18988%)" fill-opacity="1" d="M 2623.878906 1622.296875 L 2618.589844 1622.296875 C 2592.800781 1622.296875 2571.699219 1660.636719 2571.699219 1707.503906 L 2571.699219 1854.554688 L 2670.769531 1854.554688 L 2670.769531 1707.503906 C 2670.769531 1660.636719 2649.671875 1622.296875 2623.878906 1622.296875 "/>
<path fill="none" stroke-width="2.16" stroke-linecap="butt" stroke-linejoin="miter" stroke="rgb(23.925781%, 24.705505%, 39.208984%)" stroke-opacity="1" stroke-miterlimit="22.9256" d="M 26238.789062 4147.03125 L 26185.898438 4147.03125 C 25928.007812 4147.03125 25716.992188 3763.632812 25716.992188 3294.960938 L 25716.992188 1824.453125 L 26707.695312 1824.453125 L 26707.695312 3294.960938 C 26707.695312 3763.632812 26496.71875 4147.03125 26238.789062 4147.03125 Z M 26238.789062 4147.03125 " transform="matrix(0.1, 0, 0, -0.1, 0, 2037)"/>
<path fill-rule="evenodd" fill="rgb(17.259216%, 18.041992%, 21.18988%)" fill-opacity="1" d="M 2601.898438 1672.660156 L 2598.828125 1672.660156 C 2583.910156 1672.660156 2571.699219 1694.847656 2571.699219 1721.964844 L 2571.699219 1807.058594 L 2629.03125 1807.058594 L 2629.03125 1721.964844 C 2629.03125 1694.847656 2616.820312 1672.660156 2601.898438 1672.660156 "/>
<path fill="none" stroke-width="2.16" stroke-linecap="butt" stroke-linejoin="miter" stroke="rgb(23.925781%, 24.705505%, 39.208984%)" stroke-opacity="1" stroke-miterlimit="22.9256" d="M 26018.984375 3643.398438 L 25988.28125 3643.398438 C 25839.101562 3643.398438 25716.992188 3421.523438 25716.992188 3150.351562 L 25716.992188 2299.414062 L 26290.3125 2299.414062 L 26290.3125 3150.351562 C 26290.3125 3421.523438 26168.203125 3643.398438 26018.984375 3643.398438 Z M 26018.984375 3643.398438 " transform="matrix(0.1, 0, 0, -0.1, 0, 2037)"/>
<path fill-rule="evenodd" fill="rgb(17.259216%, 18.041992%, 21.18988%)" fill-opacity="1" d="M 2332.488281 1611.007812 L 2327.96875 1611.007812 C 2305.929688 1611.007812 2287.898438 1651.238281 2287.898438 1700.410156 L 2287.898438 1854.703125 L 2372.550781 1854.703125 L 2372.550781 1700.410156 C 2372.550781 1651.238281 2354.53125 1611.007812 2332.488281 1611.007812 "/>
<path fill="none" stroke-width="2.16" stroke-linecap="butt" stroke-linejoin="miter" stroke="rgb(23.925781%, 24.705505%, 39.208984%)" stroke-opacity="1" stroke-miterlimit="22.9256" d="M 23324.882812 4259.921875 L 23279.6875 4259.921875 C 23059.296875 4259.921875 22878.984375 3857.617188 22878.984375 3365.898438 L 22878.984375 1822.96875 L 23725.507812 1822.96875 L 23725.507812 3365.898438 C 23725.507812 3857.617188 23545.3125 4259.921875 23324.882812 4259.921875 Z M 23324.882812 4259.921875 " transform="matrix(0.1, 0, 0, -0.1, 0, 2037)"/>
<path fill-rule="evenodd" fill="rgb(17.259216%, 18.041992%, 21.18988%)" fill-opacity="1" d="M 285.339844 1853.980469 L 2715.050781 1853.980469 L 2715.050781 1886.265625 L 285.339844 1886.265625 L 285.339844 1853.980469 "/>
<path fill="none" stroke-width="2.16" stroke-linecap="butt" stroke-linejoin="miter" stroke="rgb(23.925781%, 24.705505%, 39.208984%)" stroke-opacity="1" stroke-miterlimit="22.9256" d="M 2853.398438 1830.195312 L 27150.507812 1830.195312 L 27150.507812 1507.34375 L 2853.398438 1507.34375 Z M 2853.398438 1830.195312 " transform="matrix(0.1, 0, 0, -0.1, 0, 2037)"/>
<path fill-rule="evenodd" fill="rgb(17.259216%, 18.041992%, 21.18988%)" fill-opacity="1" d="M 1006.808594 725.871094 L 954.597656 725.871094 L 916.167969 1461.921875 L 1042.890625 1461.921875 L 1006.808594 725.871094 "/>
<path fill="none" stroke-width="2.16" stroke-linecap="butt" stroke-linejoin="miter" stroke="rgb(23.925781%, 24.705505%, 39.208984%)" stroke-opacity="1" stroke-miterlimit="22.9256" d="M 10068.085938 13111.289062 L 9545.976562 13111.289062 L 9161.679688 5750.78125 L 10428.90625 5750.78125 Z M 10068.085938 13111.289062 " transform="matrix(0.1, 0, 0, -0.1, 0, 2037)"/>
<path fill-rule="evenodd" fill="rgb(17.259216%, 18.041992%, 21.18988%)" fill-opacity="1" d="M 1029.929688 886.050781 L 931.832031 886.050781 L 931.832031 894.339844 L 1029.929688 894.339844 L 1029.929688 886.050781 "/>
<path fill="none" stroke-width="2.16" stroke-linecap="butt" stroke-linejoin="miter" stroke="rgb(23.925781%, 24.705505%, 39.208984%)" stroke-opacity="1" stroke-miterlimit="22.9256" d="M 10299.296875 11509.492188 L 9318.320312 11509.492188 L 9318.320312 11426.601562 L 10299.296875 11426.601562 Z M 10299.296875 11509.492188 " transform="matrix(0.1, 0, 0, -0.1, 0, 2037)"/>
<path fill-rule="evenodd" fill="rgb(17.259216%, 18.041992%, 21.18988%)" fill-opacity="1" d="M 1023.46875 894.101562 L 937.425781 894.101562 L 937.425781 902.390625 L 1023.46875 902.390625 L 1023.46875 894.101562 "/>
<path fill="none" stroke-width="2.16" stroke-linecap="butt" stroke-linejoin="miter" stroke="rgb(23.925781%, 24.705505%, 39.208984%)" stroke-opacity="1" stroke-miterlimit="22.9256" d="M 10234.6875 11428.984375 L 9374.257812 11428.984375 L 9374.257812 11346.09375 L 10234.6875 11346.09375 Z M 10234.6875 11428.984375 " transform="matrix(0.1, 0, 0, -0.1, 0, 2037)"/>
<path fill-rule="evenodd" fill="rgb(17.259216%, 18.041992%, 21.18988%)" fill-opacity="1" d="M 1039.289062 1039.769531 L 919.921875 1039.769531 L 919.921875 1048.0625 L 1039.289062 1048.0625 L 1039.289062 1039.769531 "/>
<path fill="none" stroke-width="2.16" stroke-linecap="butt" stroke-linejoin="miter" stroke="rgb(23.925781%, 24.705505%, 39.208984%)" stroke-opacity="1" stroke-miterlimit="22.9256" d="M 10392.890625 9972.304688 L 9199.21875 9972.304688 L 9199.21875 9889.375 L 10392.890625 9889.375 Z M 10392.890625 9972.304688 " transform="matrix(0.1, 0, 0, -0.1, 0, 2037)"/>
<path fill-rule="evenodd" fill="rgb(17.259216%, 18.041992%, 21.18988%)" fill-opacity="1" d="M 1032.148438 1047.824219 L 927.433594 1047.824219 L 927.433594 1056.117188 L 1032.148438 1056.117188 L 1032.148438 1047.824219 "/>
<path fill="none" stroke-width="2.16" stroke-linecap="butt" stroke-linejoin="miter" stroke="rgb(23.925781%, 24.705505%, 39.208984%)" stroke-opacity="1" stroke-miterlimit="22.9256" d="M 10321.484375 9891.757812 L 9274.335938 9891.757812 L 9274.335938 9808.828125 L 10321.484375 9808.828125 Z M 10321.484375 9891.757812 " transform="matrix(0.1, 0, 0, -0.1, 0, 2037)"/>
<path fill-rule="evenodd" fill="rgb(17.259216%, 18.041992%, 21.18988%)" fill-opacity="1" d="M 1063.859375 1237.382812 L 891.785156 1237.382812 L 891.785156 1249.601562 L 1063.859375 1249.601562 L 1063.859375 1237.382812 "/>
<path fill="none" stroke-width="2.16" stroke-linecap="butt" stroke-linejoin="miter" stroke="rgb(23.925781%, 24.705505%, 39.208984%)" stroke-opacity="1" stroke-miterlimit="22.9256" d="M 10638.59375 7996.171875 L 8917.851562 7996.171875 L 8917.851562 7873.984375 L 10638.59375 7873.984375 Z M 10638.59375 7996.171875 " transform="matrix(0.1, 0, 0, -0.1, 0, 2037)"/>
<path fill-rule="evenodd" fill="rgb(17.259216%, 18.041992%, 21.18988%)" fill-opacity="1" d="M 1053.949219 1249.539062 L 903.003906 1249.539062 L 903.003906 1261.753906 L 1053.949219 1261.753906 L 1053.949219 1249.539062 "/>
<path fill="none" stroke-width="2.16" stroke-linecap="butt" stroke-linejoin="miter" stroke="rgb(23.925781%, 24.705505%, 39.208984%)" stroke-opacity="1" stroke-miterlimit="22.9256" d="M 10539.492188 7874.609375 L 9030.039062 7874.609375 L 9030.039062 7752.460938 L 10539.492188 7752.460938 Z M 10539.492188 7874.609375 " transform="matrix(0.1, 0, 0, -0.1, 0, 2037)"/>
<path fill-rule="evenodd" fill="rgb(17.259216%, 18.041992%, 21.18988%)" fill-opacity="1" d="M 973.71875 615.320312 C 955.890625 624.050781 942.070312 668.5 940.714844 723.351562 L 1019.570312 723.351562 C 1018.199219 668.089844 1004.179688 623.378906 986.160156 615.128906 C 982.601562 608.351562 980.148438 594.160156 980.148438 577.75 C 980.148438 577.058594 980.152344 576.371094 980.160156 575.679688 L 979.820312 575.679688 C 979.828125 576.371094 979.835938 577.058594 979.835938 577.75 C 979.835938 594.320312 977.335938 608.621094 973.71875 615.320312 "/>
<path fill="none" stroke-width="2.16" stroke-linecap="butt" stroke-linejoin="miter" stroke="rgb(23.925781%, 24.705505%, 39.208984%)" stroke-opacity="1" stroke-miterlimit="22.9256" d="M 9737.1875 14216.796875 C 9558.90625 14129.492188 9420.703125 13685 9407.148438 13136.484375 L 10195.703125 13136.484375 C 10181.992188 13689.101562 10041.796875 14136.210938 9861.601562 14218.710938 C 9826.015625 14286.484375 9801.484375 14428.398438 9801.484375 14592.5 C 9801.484375 14599.414062 9801.523438 14606.289062 9801.601562 14613.203125 L 9798.203125 14613.203125 C 9798.28125 14606.289062 9798.359375 14599.414062 9798.359375 14592.5 C 9798.359375 14426.796875 9773.359375 14283.789062 9737.1875 14216.796875 Z M 9737.1875 14216.796875 " transform="matrix(0.1, 0, 0, -0.1, 0, 2037)"/>
<path fill-rule="evenodd" fill="rgb(17.259216%, 18.041992%, 21.18988%)" fill-opacity="1" d="M 1029.75 727.828125 L 931.65625 727.828125 L 931.65625 733.53125 L 1029.75 733.53125 L 1029.75 727.828125 "/>
<path fill="none" stroke-width="2.16" stroke-linecap="butt" stroke-linejoin="miter" stroke="rgb(23.925781%, 24.705505%, 39.208984%)" stroke-opacity="1" stroke-miterlimit="22.9256" d="M 10297.5 13091.71875 L 9316.5625 13091.71875 L 9316.5625 13034.6875 L 10297.5 13034.6875 Z M 10297.5 13091.71875 " transform="matrix(0.1, 0, 0, -0.1, 0, 2037)"/>
<path fill-rule="evenodd" fill="rgb(17.259216%, 18.041992%, 21.18988%)" fill-opacity="1" d="M 1020.71875 733.171875 L 939.832031 733.171875 L 939.832031 738.871094 L 1020.71875 738.871094 L 1020.71875 733.171875 "/>
<path fill="none" stroke-width="2.16" stroke-linecap="butt" stroke-linejoin="miter" stroke="rgb(23.925781%, 24.705505%, 39.208984%)" stroke-opacity="1" stroke-miterlimit="22.9256" d="M 10207.1875 13038.28125 L 9398.320312 13038.28125 L 9398.320312 12981.289062 L 10207.1875 12981.289062 Z M 10207.1875 13038.28125 " transform="matrix(0.1, 0, 0, -0.1, 0, 2037)"/>
<path fill-rule="evenodd" fill="rgb(17.259216%, 18.041992%, 21.18988%)" fill-opacity="1" d="M 1023.171875 722.53125 L 937.113281 722.53125 L 937.113281 728.230469 L 1023.171875 728.230469 L 1023.171875 722.53125 "/>
<path fill="none" stroke-width="2.16" stroke-linecap="butt" stroke-linejoin="miter" stroke="rgb(23.925781%, 24.705505%, 39.208984%)" stroke-opacity="1" stroke-miterlimit="22.9256" d="M 10231.71875 13144.6875 L 9371.132812 13144.6875 L 9371.132812 13087.695312 L 10231.71875 13087.695312 Z M 10231.71875 13144.6875 " transform="matrix(0.1, 0, 0, -0.1, 0, 2037)"/>
<path fill-rule="evenodd" fill="rgb(17.259216%, 18.041992%, 21.18988%)" fill-opacity="1" d="M 2363.148438 1158.027344 C 2456.25 1178.816406 2528.421875 1284.71875 2535.5 1415.394531 L 2123.730469 1415.394531 C 2130.871094 1283.742188 2204.058594 1177.238281 2298.171875 1157.574219 C 2316.769531 1141.425781 2329.578125 1107.621094 2329.578125 1068.519531 C 2329.578125 1066.863281 2329.550781 1065.21875 2329.511719 1063.585938 L 2331.289062 1063.585938 C 2331.238281 1065.21875 2331.21875 1066.863281 2331.21875 1068.519531 C 2331.21875 1107.988281 2344.269531 1142.0625 2363.148438 1158.027344 "/>
<path fill="none" stroke-width="2.16" stroke-linecap="butt" stroke-linejoin="miter" stroke="rgb(23.925781%, 24.705505%, 39.208984%)" stroke-opacity="1" stroke-miterlimit="22.9256" d="M 23631.484375 8789.726562 C 24562.5 8581.835938 25284.21875 7522.8125 25355 6216.054688 L 21237.304688 6216.054688 C 21308.710938 7532.578125 22040.585938 8597.617188 22981.71875 8794.257812 C 23167.695312 8955.742188 23295.78125 9293.789062 23295.78125 9684.804688 C 23295.78125 9701.367188 23295.507812 9717.8125 23295.117188 9734.140625 L 23312.890625 9734.140625 C 23312.382812 9717.8125 23312.1875 9701.367188 23312.1875 9684.804688 C 23312.1875 9290.117188 23442.695312 8949.375 23631.484375 8789.726562 Z M 23631.484375 8789.726562 " transform="matrix(0.1, 0, 0, -0.1, 0, 2037)"/>
<path fill-rule="evenodd" fill="rgb(17.259216%, 18.041992%, 21.18988%)" fill-opacity="1" d="M 1984 731.421875 L 2036.21875 731.421875 L 2074.648438 1467.472656 L 1947.921875 1467.472656 L 1984 731.421875 "/>
<path fill="none" stroke-width="2.16" stroke-linecap="butt" stroke-linejoin="miter" stroke="rgb(23.925781%, 24.705505%, 39.208984%)" stroke-opacity="1" stroke-miterlimit="22.9256" d="M 19840 13055.78125 L 20362.1875 13055.78125 L 20746.484375 5695.273438 L 19479.21875 5695.273438 Z M 19840 13055.78125 " transform="matrix(0.1, 0, 0, -0.1, 0, 2037)"/>
<path fill-rule="evenodd" fill="rgb(17.259216%, 18.041992%, 21.18988%)" fill-opacity="1" d="M 1960.890625 891.601562 L 2058.980469 891.601562 L 2058.980469 899.890625 L 1960.890625 899.890625 L 1960.890625 891.601562 "/>
<path fill="none" stroke-width="2.16" stroke-linecap="butt" stroke-linejoin="miter" stroke="rgb(23.925781%, 24.705505%, 39.208984%)" stroke-opacity="1" stroke-miterlimit="22.9256" d="M 19608.90625 11453.984375 L 20589.804688 11453.984375 L 20589.804688 11371.09375 L 19608.90625 11371.09375 Z M 19608.90625 11453.984375 " transform="matrix(0.1, 0, 0, -0.1, 0, 2037)"/>
<path fill-rule="evenodd" fill="rgb(17.259216%, 18.041992%, 21.18988%)" fill-opacity="1" d="M 1967.339844 899.648438 L 2053.390625 899.648438 L 2053.390625 907.949219 L 1967.339844 907.949219 L 1967.339844 899.648438 "/>
<path fill="none" stroke-width="2.16" stroke-linecap="butt" stroke-linejoin="miter" stroke="rgb(23.925781%, 24.705505%, 39.208984%)" stroke-opacity="1" stroke-miterlimit="22.9256" d="M 19673.398438 11373.515625 L 20533.90625 11373.515625 L 20533.90625 11290.507812 L 19673.398438 11290.507812 Z M 19673.398438 11373.515625 " transform="matrix(0.1, 0, 0, -0.1, 0, 2037)"/>
<path fill-rule="evenodd" fill="rgb(17.259216%, 18.041992%, 21.18988%)" fill-opacity="1" d="M 1951.519531 1045.320312 L 2070.890625 1045.320312 L 2070.890625 1053.613281 L 1951.519531 1053.613281 L 1951.519531 1045.320312 "/>
<path fill="none" stroke-width="2.16" stroke-linecap="butt" stroke-linejoin="miter" stroke="rgb(23.925781%, 24.705505%, 39.208984%)" stroke-opacity="1" stroke-miterlimit="22.9256" d="M 19515.195312 9916.796875 L 20708.90625 9916.796875 L 20708.90625 9833.867188 L 19515.195312 9833.867188 Z M 19515.195312 9916.796875 " transform="matrix(0.1, 0, 0, -0.1, 0, 2037)"/>
<path fill-rule="evenodd" fill="rgb(17.259216%, 18.041992%, 21.18988%)" fill-opacity="1" d="M 1958.671875 1053.375 L 2063.378906 1053.375 L 2063.378906 1061.667969 L 1958.671875 1061.667969 L 1958.671875 1053.375 "/>
<path fill="none" stroke-width="2.16" stroke-linecap="butt" stroke-linejoin="miter" stroke="rgb(23.925781%, 24.705505%, 39.208984%)" stroke-opacity="1" stroke-miterlimit="22.9256" d="M 19586.71875 9836.25 L 20633.789062 9836.25 L 20633.789062 9753.320312 L 19586.71875 9753.320312 Z M 19586.71875 9836.25 " transform="matrix(0.1, 0, 0, -0.1, 0, 2037)"/>
<path fill-rule="evenodd" fill="rgb(17.259216%, 18.041992%, 21.18988%)" fill-opacity="1" d="M 1926.949219 1242.933594 L 2099.03125 1242.933594 L 2099.03125 1255.148438 L 1926.949219 1255.148438 L 1926.949219 1242.933594 "/>
<path fill="none" stroke-width="2.16" stroke-linecap="butt" stroke-linejoin="miter" stroke="rgb(23.925781%, 24.705505%, 39.208984%)" stroke-opacity="1" stroke-miterlimit="22.9256" d="M 19269.492188 7940.664062 L 20990.3125 7940.664062 L 20990.3125 7818.515625 L 19269.492188 7818.515625 Z M 19269.492188 7940.664062 " transform="matrix(0.1, 0, 0, -0.1, 0, 2037)"/>
<path fill-rule="evenodd" fill="rgb(17.259216%, 18.041992%, 21.18988%)" fill-opacity="1" d="M 1936.859375 1255.089844 L 2087.808594 1255.089844 L 2087.808594 1267.304688 L 1936.859375 1267.304688 L 1936.859375 1255.089844 "/>
<path fill="none" stroke-width="2.16" stroke-linecap="butt" stroke-linejoin="miter" stroke="rgb(23.925781%, 24.705505%, 39.208984%)" stroke-opacity="1" stroke-miterlimit="22.9256" d="M 19368.59375 7819.101562 L 20878.085938 7819.101562 L 20878.085938 7696.953125 L 19368.59375 7696.953125 Z M 19368.59375 7819.101562 " transform="matrix(0.1, 0, 0, -0.1, 0, 2037)"/>
<path fill-rule="evenodd" fill="rgb(17.259216%, 18.041992%, 21.18988%)" fill-opacity="1" d="M 2017.089844 620.039062 C 2034.921875 628.769531 2048.738281 673.21875 2050.101562 728.058594 L 1971.25 728.058594 C 1972.609375 672.808594 1986.628906 628.101562 2004.648438 619.851562 C 2008.210938 613.070312 2010.671875 598.878906 2010.671875 582.46875 C 2010.671875 581.78125 2010.660156 581.089844 2010.648438 580.398438 L 2010.988281 580.398438 C 2010.980469 581.089844 2010.980469 581.78125 2010.980469 582.46875 C 2010.980469 599.039062 2013.480469 613.339844 2017.089844 620.039062 "/>
<path fill="none" stroke-width="2.16" stroke-linecap="butt" stroke-linejoin="miter" stroke="rgb(23.925781%, 24.705505%, 39.208984%)" stroke-opacity="1" stroke-miterlimit="22.9256" d="M 20170.898438 14169.609375 C 20349.21875 14082.304688 20487.382812 13637.8125 20501.015625 13089.414062 L 19712.5 13089.414062 C 19726.09375 13641.914062 19866.289062 14088.984375 20046.484375 14171.484375 C 20082.109375 14239.296875 20106.71875 14381.210938 20106.71875 14545.3125 C 20106.71875 14552.1875 20106.601562 14559.101562 20106.484375 14566.015625 L 20109.882812 14566.015625 C 20109.804688 14559.101562 20109.804688 14552.1875 20109.804688 14545.3125 C 20109.804688 14379.609375 20134.804688 14236.601562 20170.898438 14169.609375 Z M 20170.898438 14169.609375 " transform="matrix(0.1, 0, 0, -0.1, 0, 2037)"/>
<path fill-rule="evenodd" fill="rgb(17.259216%, 18.041992%, 21.18988%)" fill-opacity="1" d="M 1961.058594 733.378906 L 2059.160156 733.378906 L 2059.160156 739.078125 L 1961.058594 739.078125 L 1961.058594 733.378906 "/>
<path fill="none" stroke-width="2.16" stroke-linecap="butt" stroke-linejoin="miter" stroke="rgb(23.925781%, 24.705505%, 39.208984%)" stroke-opacity="1" stroke-miterlimit="22.9256" d="M 19610.585938 13036.210938 L 20591.601562 13036.210938 L 20591.601562 12979.21875 L 19610.585938 12979.21875 Z M 19610.585938 13036.210938 " transform="matrix(0.1, 0, 0, -0.1, 0, 2037)"/>
<path fill-rule="evenodd" fill="rgb(17.259216%, 18.041992%, 21.18988%)" fill-opacity="1" d="M 1970.101562 738.71875 L 2050.980469 738.71875 L 2050.980469 744.421875 L 1970.101562 744.421875 L 1970.101562 738.71875 "/>
<path fill="none" stroke-width="2.16" stroke-linecap="butt" stroke-linejoin="miter" stroke="rgb(23.925781%, 24.705505%, 39.208984%)" stroke-opacity="1" stroke-miterlimit="22.9256" d="M 19701.015625 12982.8125 L 20509.804688 12982.8125 L 20509.804688 12925.78125 L 19701.015625 12925.78125 Z M 19701.015625 12982.8125 " transform="matrix(0.1, 0, 0, -0.1, 0, 2037)"/>
<path fill-rule="evenodd" fill="rgb(17.259216%, 18.041992%, 21.18988%)" fill-opacity="1" d="M 1967.648438 728.078125 L 2053.699219 728.078125 L 2053.699219 733.78125 L 1967.648438 733.78125 L 1967.648438 728.078125 "/>
<path fill="none" stroke-width="2.16" stroke-linecap="butt" stroke-linejoin="miter" stroke="rgb(23.925781%, 24.705505%, 39.208984%)" stroke-opacity="1" stroke-miterlimit="22.9256" d="M 19676.484375 13089.21875 L 20536.992188 13089.21875 L 20536.992188 13032.1875 L 19676.484375 13032.1875 Z M 19676.484375 13089.21875 " transform="matrix(0.1, 0, 0, -0.1, 0, 2037)"/>
<path fill-rule="evenodd" fill="rgb(17.259216%, 18.041992%, 21.18988%)" fill-opacity="1" d="M 1481.808594 910.578125 C 1490.210938 909.648438 1498.289062 911.378906 1504.960938 915.019531 C 1502.640625 914.960938 1500.261719 915.050781 1497.851562 915.320312 C 1478.328125 917.488281 1464.109375 930.308594 1466.078125 943.949219 C 1468.058594 957.589844 1485.488281 966.878906 1505.019531 964.699219 C 1506.910156 964.488281 1508.738281 964.179688 1510.519531 963.78125 C 1505.269531 968.140625 1498.449219 971.121094 1490.71875 971.980469 C 1471.371094 974.140625 1453.691406 962.140625 1451.230469 945.191406 C 1448.769531 928.230469 1462.460938 912.738281 1481.808594 910.578125 "/>
<path fill="none" stroke-width="2.16" stroke-linecap="butt" stroke-linejoin="miter" stroke="rgb(23.925781%, 24.705505%, 39.208984%)" stroke-opacity="1" stroke-miterlimit="22.9256" d="M 14818.085938 11264.21875 C 14902.109375 11273.515625 14982.890625 11256.210938 15049.609375 11219.804688 C 15026.40625 11220.390625 15002.617188 11219.492188 14978.515625 11216.796875 C 14783.28125 11195.117188 14641.09375 11066.914062 14660.78125 10930.507812 C 14680.585938 10794.101562 14854.882812 10701.210938 15050.195312 10723.007812 C 15069.101562 10725.117188 15087.382812 10728.203125 15105.195312 10732.1875 C 15052.695312 10688.59375 14984.492188 10658.789062 14907.1875 10650.195312 C 14713.710938 10628.59375 14536.914062 10748.59375 14512.304688 10918.085938 C 14487.695312 11087.695312 14624.609375 11242.617188 14818.085938 11264.21875 Z M 14818.085938 11264.21875 " transform="matrix(0.1, 0, 0, -0.1, 0, 2037)"/>
<path fill-rule="evenodd" fill="rgb(17.259216%, 18.041992%, 21.18988%)" fill-opacity="1" d="M 1937.199219 1433.390625 L 2740 1433.390625 L 2740 1451.265625 L 1937.199219 1451.265625 L 1937.199219 1433.390625 "/>
<path fill="none" stroke-width="2.16" stroke-linecap="butt" stroke-linejoin="miter" stroke="rgb(23.925781%, 24.705505%, 39.208984%)" stroke-opacity="1" stroke-miterlimit="22.9256" d="M 19371.992188 6036.09375 L 27400 6036.09375 L 27400 5857.34375 L 19371.992188 5857.34375 Z M 19371.992188 6036.09375 " transform="matrix(0.1, 0, 0, -0.1, 0, 2037)"/>
<path fill-rule="evenodd" fill="rgb(17.259216%, 18.041992%, 21.18988%)" fill-opacity="1" d="M 1934.210938 1415.5 L 2697.921875 1415.5 L 2697.921875 1433.207031 L 1934.210938 1433.207031 L 1934.210938 1415.5 "/>
<path fill="none" stroke-width="2.16" stroke-linecap="butt" stroke-linejoin="miter" stroke="rgb(23.925781%, 24.705505%, 39.208984%)" stroke-opacity="1" stroke-miterlimit="22.9256" d="M 19342.109375 6215 L 26979.21875 6215 L 26979.21875 6037.929688 L 19342.109375 6037.929688 Z M 19342.109375 6215 " transform="matrix(0.1, 0, 0, -0.1, 0, 2037)"/>
<path fill-rule="evenodd" fill="rgb(17.259216%, 18.041992%, 21.18988%)" fill-opacity="1" d="M 1934.210938 1451.035156 L 2697.921875 1451.035156 L 2697.921875 1468.742188 L 1934.210938 1468.742188 L 1934.210938 1451.035156 "/>
<path fill="none" stroke-width="2.16" stroke-linecap="butt" stroke-linejoin="miter" stroke="rgb(23.925781%, 24.705505%, 39.208984%)" stroke-opacity="1" stroke-miterlimit="22.9256" d="M 19342.109375 5859.648438 L 26979.21875 5859.648438 L 26979.21875 5682.578125 L 19342.109375 5682.578125 Z M 19342.109375 5859.648438 " transform="matrix(0.1, 0, 0, -0.1, 0, 2037)"/>
<path fill-rule="evenodd" fill="rgb(17.259216%, 18.041992%, 21.18988%)" fill-opacity="1" d="M 1058.878906 1433.871094 L 256.074219 1433.871094 L 256.074219 1451.746094 L 1058.878906 1451.746094 L 1058.878906 1433.871094 "/>
<path fill="none" stroke-width="2.16" stroke-linecap="butt" stroke-linejoin="miter" stroke="rgb(23.925781%, 24.705505%, 39.208984%)" stroke-opacity="1" stroke-miterlimit="22.9256" d="M 10588.789062 6031.289062 L 2560.742188 6031.289062 L 2560.742188 5852.539062 L 10588.789062 5852.539062 Z M 10588.789062 6031.289062 " transform="matrix(0.1, 0, 0, -0.1, 0, 2037)"/>
<path fill-rule="evenodd" fill="rgb(17.259216%, 18.041992%, 21.18988%)" fill-opacity="1" d="M 1059.230469 1415.980469 L 295.523438 1415.980469 L 295.523438 1433.6875 L 1059.230469 1433.6875 L 1059.230469 1415.980469 "/>
<path fill="none" stroke-width="2.16" stroke-linecap="butt" stroke-linejoin="miter" stroke="rgb(23.925781%, 24.705505%, 39.208984%)" stroke-opacity="1" stroke-miterlimit="22.9256" d="M 10592.304688 6210.195312 L 2955.234375 6210.195312 L 2955.234375 6033.125 L 10592.304688 6033.125 Z M 10592.304688 6210.195312 " transform="matrix(0.1, 0, 0, -0.1, 0, 2037)"/>
<path fill-rule="evenodd" fill="rgb(17.259216%, 18.041992%, 21.18988%)" fill-opacity="1" d="M 1059.230469 1451.515625 L 295.523438 1451.515625 L 295.523438 1469.222656 L 1059.230469 1469.222656 L 1059.230469 1451.515625 "/>
<path fill="none" stroke-width="2.16" stroke-linecap="butt" stroke-linejoin="miter" stroke="rgb(23.925781%, 24.705505%, 39.208984%)" stroke-opacity="1" stroke-miterlimit="22.9256" d="M 10592.304688 5854.84375 L 2955.234375 5854.84375 L 2955.234375 5677.773438 L 10592.304688 5677.773438 Z M 10592.304688 5854.84375 " transform="matrix(0.1, 0, 0, -0.1, 0, 2037)"/>
<path fill-rule="evenodd" fill="rgb(17.259216%, 18.041992%, 21.18988%)" fill-opacity="1" d="M 1447.96875 1060.105469 C 1349.511719 1130.035156 1264.539062 1206.265625 1255.628906 1345.796875 L 1146.359375 1345.796875 C 1157.910156 1187.765625 1290.5 1082.75 1447.96875 1060.105469 "/>
<path fill="none" stroke-width="2.16" stroke-linecap="butt" stroke-linejoin="miter" stroke="rgb(23.925781%, 24.705505%, 39.208984%)" stroke-opacity="1" stroke-miterlimit="22.9256" d="M 14479.6875 9768.945312 C 13495.117188 9069.648438 12645.390625 8307.34375 12556.289062 6912.03125 L 11463.59375 6912.03125 C 11579.101562 8492.34375 12905 9542.5 14479.6875 9768.945312 Z M 14479.6875 9768.945312 " transform="matrix(0.1, 0, 0, -0.1, 0, 2037)"/>
<path fill-rule="evenodd" fill="rgb(17.259216%, 18.041992%, 21.18988%)" fill-opacity="1" d="M 1491.398438 915.449219 L 1498.078125 933.578125 L 1519.820312 933.539062 L 1502.210938 944.710938 L 1508.96875 962.820312 L 1491.398438 951.589844 L 1473.839844 962.820312 L 1480.601562 944.710938 L 1462.980469 933.539062 L 1484.730469 933.578125 L 1491.398438 915.449219 "/>
<path fill="none" stroke-width="2.16" stroke-linecap="butt" stroke-linejoin="miter" stroke="rgb(23.925781%, 24.705505%, 39.208984%)" stroke-opacity="1" stroke-miterlimit="22.9256" d="M 14913.984375 11215.507812 L 14980.78125 11034.21875 L 15198.203125 11034.609375 L 15022.109375 10922.890625 L 15089.6875 10741.796875 L 14913.984375 10854.101562 L 14738.398438 10741.796875 L 14806.015625 10922.890625 L 14629.804688 11034.609375 L 14847.304688 11034.21875 Z M 14913.984375 11215.507812 " transform="matrix(0.1, 0, 0, -0.1, 0, 2037)"/>
<path fill-rule="evenodd" fill="rgb(23.925781%, 24.705505%, 39.208984%)" fill-opacity="1" d="M 2120.488281 871.96875 L 2163.78125 871.96875 C 2159.53125 870.328125 2156.710938 867.46875 2156.710938 864.21875 C 2156.710938 861.28125 2159.03125 858.640625 2162.640625 856.960938 L 2138.199219 856.960938 C 2129.789062 856.960938 2122.910156 852.820312 2122.910156 847.761719 C 2122.910156 842.691406 2129.789062 838.550781 2138.199219 838.550781 L 2461.699219 838.550781 C 2470.109375 838.550781 2476.988281 842.691406 2476.988281 847.761719 C 2476.988281 850.699219 2474.671875 853.328125 2471.058594 855.019531 L 2495.5 855.019531 C 2503.910156 855.019531 2510.789062 859.160156 2510.789062 864.21875 C 2510.789062 869.28125 2503.910156 873.421875 2495.5 873.421875 L 2452.21875 873.421875 C 2456.460938 875.058594 2459.289062 877.929688 2459.289062 881.171875 C 2459.289062 886.230469 2452.410156 890.371094 2444 890.371094 L 2120.488281 890.371094 C 2112.078125 890.371094 2105.199219 886.230469 2105.199219 881.171875 C 2105.199219 876.109375 2112.078125 871.96875 2120.488281 871.96875 "/>
<path fill-rule="evenodd" fill="rgb(23.925781%, 24.705505%, 39.208984%)" fill-opacity="1" d="M 894.363281 881.949219 L 858.667969 881.949219 C 862.167969 880.601562 864.496094 878.230469 864.496094 875.558594 C 864.496094 873.128906 862.578125 870.960938 859.605469 869.570312 L 879.761719 869.570312 C 886.699219 869.570312 892.371094 866.148438 892.371094 861.980469 C 892.371094 857.808594 886.699219 854.390625 879.761719 854.390625 L 612.976562 854.390625 C 606.039062 854.390625 600.367188 857.808594 600.367188 861.980469 C 600.367188 864.410156 602.289062 866.578125 605.261719 867.96875 L 585.101562 867.96875 C 578.167969 867.96875 572.492188 871.378906 572.492188 875.558594 C 572.492188 879.730469 578.167969 883.148438 585.101562 883.148438 L 620.796875 883.148438 C 617.296875 884.5 614.964844 886.859375 614.964844 889.539062 C 614.964844 893.710938 620.640625 897.128906 627.574219 897.128906 L 894.363281 897.128906 C 901.296875 897.128906 906.972656 893.710938 906.972656 889.539062 C 906.972656 885.359375 901.296875 881.949219 894.363281 881.949219 "/>
<path fill-rule="evenodd" fill="rgb(23.925781%, 24.705505%, 39.208984%)" fill-opacity="1" d="M 1230.058594 760.46875 L 1297.179688 760.46875 C 1290.601562 757.929688 1286.21875 753.480469 1286.21875 748.460938 C 1286.21875 743.890625 1289.828125 739.808594 1295.421875 737.191406 L 1257.519531 737.191406 C 1244.46875 737.191406 1233.800781 730.769531 1233.800781 722.921875 C 1233.800781 715.070312 1244.46875 708.648438 1257.519531 708.648438 L 1759.191406 708.648438 C 1772.230469 708.648438 1782.898438 715.070312 1782.898438 722.921875 C 1782.898438 727.488281 1779.289062 731.570312 1773.699219 734.191406 L 1811.609375 734.191406 C 1824.648438 734.191406 1835.320312 740.609375 1835.320312 748.460938 C 1835.320312 756.300781 1824.648438 762.71875 1811.609375 762.71875 L 1744.488281 762.71875 C 1751.070312 765.269531 1755.449219 769.710938 1755.449219 774.738281 C 1755.449219 782.589844 1744.78125 789.011719 1731.738281 789.011719 L 1230.058594 789.011719 C 1217.019531 789.011719 1206.351562 782.589844 1206.351562 774.738281 C 1206.351562 766.890625 1217.019531 760.46875 1230.058594 760.46875 "/>
<path fill-rule="evenodd" fill="rgb(17.259216%, 18.041992%, 21.18988%)" fill-opacity="1" d="M 1481.511719 0.800781 C 2994.738281 268.339844 2495.78125 736.53125 3002.921875 1104.394531 L 3002.921875 2036 L 1 2036 L 1 1118.726562 C 494.503906 746.078125 -345.269531 351.941406 1481.511719 0.800781 Z M 1483.070312 78.441406 C 2880.851562 325.558594 2419.960938 758.03125 2888.398438 1097.835938 L 2888.398438 1958.363281 L 115.515625 1958.363281 L 115.515625 1111.074219 C 571.367188 766.859375 -204.335938 402.789062 1483.070312 78.441406 "/>
<path fill-rule="evenodd" fill="rgb(17.259216%, 18.041992%, 21.18988%)" fill-opacity="1" d="M 1011.660156 1381.914062 L 1981.390625 1381.914062 L 1981.390625 1402.425781 L 1011.660156 1402.425781 L 1011.660156 1381.914062 "/>
<path fill="none" stroke-width="2.16" stroke-linecap="butt" stroke-linejoin="miter" stroke="rgb(23.925781%, 24.705505%, 39.208984%)" stroke-opacity="1" stroke-miterlimit="22.9256" d="M 10116.601562 6550.859375 L 19813.90625 6550.859375 L 19813.90625 6345.742188 L 10116.601562 6345.742188 Z M 10116.601562 6550.859375 " transform="matrix(0.1, 0, 0, -0.1, 0, 2037)"/>
<path fill-rule="evenodd" fill="rgb(17.259216%, 18.041992%, 21.18988%)" fill-opacity="1" d="M 245.398438 1890.03125 L 2754.988281 1890.03125 L 2754.988281 1922.3125 L 245.398438 1922.3125 L 245.398438 1890.03125 "/>
<path fill="none" stroke-width="2.16" stroke-linecap="butt" stroke-linejoin="miter" stroke="rgb(23.925781%, 24.705505%, 39.208984%)" stroke-opacity="1" stroke-miterlimit="22.9256" d="M 2453.984375 1469.6875 L 27549.882812 1469.6875 L 27549.882812 1146.875 L 2453.984375 1146.875 Z M 2453.984375 1469.6875 " transform="matrix(0.1, 0, 0, -0.1, 0, 2037)"/>
<path fill-rule="evenodd" fill="rgb(17.259216%, 18.041992%, 21.18988%)" fill-opacity="1" d="M 196.199219 1926.078125 L 2804.191406 1926.078125 L 2804.191406 1958.363281 L 196.199219 1958.363281 L 196.199219 1926.078125 "/>
<path fill="none" stroke-width="2.16" stroke-linecap="butt" stroke-linejoin="miter" stroke="rgb(23.925781%, 24.705505%, 39.208984%)" stroke-opacity="1" stroke-miterlimit="22.9256" d="M 1961.992188 1109.21875 L 28041.914062 1109.21875 L 28041.914062 786.367188 L 1961.992188 786.367188 Z M 1961.992188 1109.21875 " transform="matrix(0.1, 0, 0, -0.1, 0, 2037)"/>
</svg>
