<?xml version="1.0" encoding="UTF-8"?>
<svg xmlns="http://www.w3.org/2000/svg" xmlns:xlink="http://www.w3.org/1999/xlink" width="2000" height="2000" viewBox="0 0 2000 2000">
<defs>
<clipPath id="clip-0">

</clipPath>
<clipPath id="clip-1">
<path clip-rule="nonzero" d="M 980.066406 666.859375 L 980.042969 667.378906 C 980.066406 667.371094 980.089844 667.359375 980.113281 667.351562 L 980.667969 667.101562 C 980.464844 667.03125 980.261719 666.949219 980.066406 666.859375 Z M 980.066406 666.859375 "/>
</clipPath>
<clipPath id="clip-2">
<path clip-rule="nonzero" d="M 980.066406 666.859375 L 980.042969 667.378906 C 980.066406 667.371094 980.089844 667.359375 980.113281 667.351562 L 980.667969 667.101562 C 980.464844 667.03125 980.261719 666.949219 980.066406 666.859375 "/>
</clipPath>
<linearGradient id="linear-pattern-0" gradientUnits="userSpaceOnUse" x1="0" y1="0" x2="0.999049" y2="0" gradientTransform="matrix(0.626596, 0, 0, 0.626596, 980.043, 667.12)">
<stop offset="0" stop-color="rgb(50.053406%, 79.605103%, 17.915344%)" stop-opacity="1"/>
<stop offset="0.0078125" stop-color="rgb(49.961853%, 79.483032%, 17.932129%)" stop-opacity="1"/>
<stop offset="0.015625" stop-color="rgb(49.77417%, 79.232788%, 17.964172%)" stop-opacity="1"/>
<stop offset="0.0234375" stop-color="rgb(49.584961%, 78.98407%, 17.996216%)" stop-opacity="1"/>
<stop offset="0.03125" stop-color="rgb(49.398804%, 78.735352%, 18.028259%)" stop-opacity="1"/>
<stop offset="0.0390625" stop-color="rgb(49.211121%, 78.488159%, 18.060303%)" stop-opacity="1"/>
<stop offset="0.046875" stop-color="rgb(49.024963%, 78.240967%, 18.09082%)" stop-opacity="1"/>
<stop offset="0.0546875" stop-color="rgb(48.838806%, 77.993774%, 18.122864%)" stop-opacity="1"/>
<stop offset="0.0625" stop-color="rgb(48.652649%, 77.748108%, 18.153381%)" stop-opacity="1"/>
<stop offset="0.0703125" stop-color="rgb(48.468018%, 77.502441%, 18.183899%)" stop-opacity="1"/>
<stop offset="0.078125" stop-color="rgb(48.284912%, 77.258301%, 18.214417%)" stop-opacity="1"/>
<stop offset="0.0859375" stop-color="rgb(48.100281%, 77.01416%, 18.244934%)" stop-opacity="1"/>
<stop offset="0.09375" stop-color="rgb(47.915649%, 76.77002%, 18.273926%)" stop-opacity="1"/>
<stop offset="0.101562" stop-color="rgb(47.732544%, 76.527405%, 18.304443%)" stop-opacity="1"/>
<stop offset="0.109375" stop-color="rgb(47.549438%, 76.28479%, 18.333435%)" stop-opacity="1"/>
<stop offset="0.117188" stop-color="rgb(47.366333%, 76.042175%, 18.362427%)" stop-opacity="1"/>
<stop offset="0.125" stop-color="rgb(47.184753%, 75.802612%, 18.391418%)" stop-opacity="1"/>
<stop offset="0.132812" stop-color="rgb(47.003174%, 75.561523%, 18.421936%)" stop-opacity="1"/>
<stop offset="0.140625" stop-color="rgb(46.821594%, 75.32196%, 18.449402%)" stop-opacity="1"/>
<stop offset="0.148438" stop-color="rgb(46.641541%, 75.082397%, 18.478394%)" stop-opacity="1"/>
<stop offset="0.15625" stop-color="rgb(46.461487%, 74.842834%, 18.505859%)" stop-opacity="1"/>
<stop offset="0.164062" stop-color="rgb(46.281433%, 74.604797%, 18.533325%)" stop-opacity="1"/>
<stop offset="0.171875" stop-color="rgb(46.102905%, 74.36676%, 18.560791%)" stop-opacity="1"/>
<stop offset="0.179688" stop-color="rgb(45.922852%, 74.128723%, 18.588257%)" stop-opacity="1"/>
<stop offset="0.1875" stop-color="rgb(45.744324%, 73.892212%, 18.615723%)" stop-opacity="1"/>
<stop offset="0.195312" stop-color="rgb(45.565796%, 73.655701%, 18.643188%)" stop-opacity="1"/>
<stop offset="0.203125" stop-color="rgb(45.387268%, 73.420715%, 18.670654%)" stop-opacity="1"/>
<stop offset="0.210938" stop-color="rgb(45.210266%, 73.184204%, 18.696594%)" stop-opacity="1"/>
<stop offset="0.21875" stop-color="rgb(45.033264%, 72.949219%, 18.722534%)" stop-opacity="1"/>
<stop offset="0.226562" stop-color="rgb(44.856262%, 72.715759%, 18.748474%)" stop-opacity="1"/>
<stop offset="0.234375" stop-color="rgb(44.682312%, 72.4823%, 18.774414%)" stop-opacity="1"/>
<stop offset="0.242188" stop-color="rgb(44.50531%, 72.250366%, 18.800354%)" stop-opacity="1"/>
<stop offset="0.25" stop-color="rgb(44.329834%, 72.018433%, 18.824768%)" stop-opacity="1"/>
<stop offset="0.257812" stop-color="rgb(44.155884%, 71.786499%, 18.850708%)" stop-opacity="1"/>
<stop offset="0.265625" stop-color="rgb(43.981934%, 71.554565%, 18.876648%)" stop-opacity="1"/>
<stop offset="0.273438" stop-color="rgb(43.807983%, 71.324158%, 18.901062%)" stop-opacity="1"/>
<stop offset="0.28125" stop-color="rgb(43.634033%, 71.09375%, 18.925476%)" stop-opacity="1"/>
<stop offset="0.289062" stop-color="rgb(43.460083%, 70.864868%, 18.94989%)" stop-opacity="1"/>
<stop offset="0.296875" stop-color="rgb(43.287659%, 70.63446%, 18.974304%)" stop-opacity="1"/>
<stop offset="0.304688" stop-color="rgb(43.115234%, 70.407104%, 18.997192%)" stop-opacity="1"/>
<stop offset="0.3125" stop-color="rgb(42.944336%, 70.179749%, 19.020081%)" stop-opacity="1"/>
<stop offset="0.320312" stop-color="rgb(42.773438%, 69.952393%, 19.044495%)" stop-opacity="1"/>
<stop offset="0.328125" stop-color="rgb(42.601013%, 69.725037%, 19.067383%)" stop-opacity="1"/>
<stop offset="0.335938" stop-color="rgb(42.430115%, 69.499207%, 19.090271%)" stop-opacity="1"/>
<stop offset="0.34375" stop-color="rgb(42.260742%, 69.271851%, 19.113159%)" stop-opacity="1"/>
<stop offset="0.351562" stop-color="rgb(42.089844%, 69.047546%, 19.136047%)" stop-opacity="1"/>
<stop offset="0.359375" stop-color="rgb(41.920471%, 68.823242%, 19.15741%)" stop-opacity="1"/>
<stop offset="0.367188" stop-color="rgb(41.751099%, 68.598938%, 19.180298%)" stop-opacity="1"/>
<stop offset="0.375" stop-color="rgb(41.583252%, 68.374634%, 19.20166%)" stop-opacity="1"/>
<stop offset="0.382812" stop-color="rgb(41.413879%, 68.151855%, 19.223022%)" stop-opacity="1"/>
<stop offset="0.390625" stop-color="rgb(41.247559%, 67.929077%, 19.244385%)" stop-opacity="1"/>
<stop offset="0.398438" stop-color="rgb(41.081238%, 67.707825%, 19.265747%)" stop-opacity="1"/>
<stop offset="0.40625" stop-color="rgb(40.913391%, 67.486572%, 19.287109%)" stop-opacity="1"/>
<stop offset="0.414062" stop-color="rgb(40.74707%, 67.26532%, 19.308472%)" stop-opacity="1"/>
<stop offset="0.421875" stop-color="rgb(40.58075%, 67.045593%, 19.328308%)" stop-opacity="1"/>
<stop offset="0.429688" stop-color="rgb(40.414429%, 66.825867%, 19.348145%)" stop-opacity="1"/>
<stop offset="0.4375" stop-color="rgb(40.249634%, 66.60614%, 19.369507%)" stop-opacity="1"/>
<stop offset="0.445312" stop-color="rgb(40.084839%, 66.387939%, 19.389343%)" stop-opacity="1"/>
<stop offset="0.453125" stop-color="rgb(39.920044%, 66.169739%, 19.407654%)" stop-opacity="1"/>
<stop offset="0.460938" stop-color="rgb(39.755249%, 65.951538%, 19.42749%)" stop-opacity="1"/>
<stop offset="0.46875" stop-color="rgb(39.593506%, 65.734863%, 19.447327%)" stop-opacity="1"/>
<stop offset="0.476562" stop-color="rgb(39.430237%, 65.518188%, 19.465637%)" stop-opacity="1"/>
<stop offset="0.484375" stop-color="rgb(39.266968%, 65.30304%, 19.483948%)" stop-opacity="1"/>
<stop offset="0.492188" stop-color="rgb(39.103699%, 65.087891%, 19.503784%)" stop-opacity="1"/>
<stop offset="0.5" stop-color="rgb(38.941956%, 64.872742%, 19.522095%)" stop-opacity="1"/>
<stop offset="0.507812" stop-color="rgb(38.780212%, 64.657593%, 19.540405%)" stop-opacity="1"/>
<stop offset="0.515625" stop-color="rgb(38.618469%, 64.44397%, 19.55719%)" stop-opacity="1"/>
<stop offset="0.523438" stop-color="rgb(38.458252%, 64.230347%, 19.5755%)" stop-opacity="1"/>
<stop offset="0.53125" stop-color="rgb(38.298035%, 64.01825%, 19.593811%)" stop-opacity="1"/>
<stop offset="0.539062" stop-color="rgb(38.137817%, 63.806152%, 19.610596%)" stop-opacity="1"/>
<stop offset="0.546875" stop-color="rgb(37.979126%, 63.594055%, 19.62738%)" stop-opacity="1"/>
<stop offset="0.554688" stop-color="rgb(37.818909%, 63.383484%, 19.644165%)" stop-opacity="1"/>
<stop offset="0.5625" stop-color="rgb(37.660217%, 63.171387%, 19.66095%)" stop-opacity="1"/>
<stop offset="0.570312" stop-color="rgb(37.501526%, 62.962341%, 19.677734%)" stop-opacity="1"/>
<stop offset="0.578125" stop-color="rgb(37.34436%, 62.75177%, 19.694519%)" stop-opacity="1"/>
<stop offset="0.585938" stop-color="rgb(37.185669%, 62.542725%, 19.709778%)" stop-opacity="1"/>
<stop offset="0.59375" stop-color="rgb(37.028503%, 62.333679%, 19.726562%)" stop-opacity="1"/>
<stop offset="0.601562" stop-color="rgb(36.871338%, 62.12616%, 19.741821%)" stop-opacity="1"/>
<stop offset="0.609375" stop-color="rgb(36.714172%, 61.91864%, 19.75708%)" stop-opacity="1"/>
<stop offset="0.617188" stop-color="rgb(36.558533%, 61.711121%, 19.772339%)" stop-opacity="1"/>
<stop offset="0.625" stop-color="rgb(36.404419%, 61.505127%, 19.787598%)" stop-opacity="1"/>
<stop offset="0.632812" stop-color="rgb(36.248779%, 61.299133%, 19.801331%)" stop-opacity="1"/>
<stop offset="0.640625" stop-color="rgb(36.09314%, 61.09314%, 19.816589%)" stop-opacity="1"/>
<stop offset="0.648438" stop-color="rgb(35.939026%, 60.887146%, 19.831848%)" stop-opacity="1"/>
<stop offset="0.65625" stop-color="rgb(35.784912%, 60.684204%, 19.845581%)" stop-opacity="1"/>
<stop offset="0.664062" stop-color="rgb(35.630798%, 60.481262%, 19.859314%)" stop-opacity="1"/>
<stop offset="0.671875" stop-color="rgb(35.47821%, 60.276794%, 19.873047%)" stop-opacity="1"/>
<stop offset="0.679688" stop-color="rgb(35.324097%, 60.073853%, 19.88678%)" stop-opacity="1"/>
<stop offset="0.6875" stop-color="rgb(35.171509%, 59.870911%, 19.900513%)" stop-opacity="1"/>
<stop offset="0.695312" stop-color="rgb(35.018921%, 59.669495%, 19.914246%)" stop-opacity="1"/>
<stop offset="0.703125" stop-color="rgb(34.869385%, 59.468079%, 19.926453%)" stop-opacity="1"/>
<stop offset="0.710938" stop-color="rgb(34.716797%, 59.266663%, 19.93866%)" stop-opacity="1"/>
<stop offset="0.71875" stop-color="rgb(34.565735%, 59.066772%, 19.952393%)" stop-opacity="1"/>
<stop offset="0.726562" stop-color="rgb(34.414673%, 58.866882%, 19.9646%)" stop-opacity="1"/>
<stop offset="0.734375" stop-color="rgb(34.265137%, 58.666992%, 19.976807%)" stop-opacity="1"/>
<stop offset="0.742188" stop-color="rgb(34.115601%, 58.468628%, 19.989014%)" stop-opacity="1"/>
<stop offset="0.75" stop-color="rgb(33.966064%, 58.270264%, 19.999695%)" stop-opacity="1"/>
<stop offset="0.757812" stop-color="rgb(33.816528%, 58.071899%, 20.011902%)" stop-opacity="1"/>
<stop offset="0.765625" stop-color="rgb(33.666992%, 57.875061%, 20.022583%)" stop-opacity="1"/>
<stop offset="0.773438" stop-color="rgb(33.518982%, 57.678223%, 20.03479%)" stop-opacity="1"/>
<stop offset="0.78125" stop-color="rgb(33.372498%, 57.48291%, 20.045471%)" stop-opacity="1"/>
<stop offset="0.789062" stop-color="rgb(33.224487%, 57.286072%, 20.056152%)" stop-opacity="1"/>
<stop offset="0.796875" stop-color="rgb(33.078003%, 57.092285%, 20.066833%)" stop-opacity="1"/>
<stop offset="0.804688" stop-color="rgb(32.929993%, 56.896973%, 20.077515%)" stop-opacity="1"/>
<stop offset="0.8125" stop-color="rgb(32.783508%, 56.703186%, 20.088196%)" stop-opacity="1"/>
<stop offset="0.820312" stop-color="rgb(32.637024%, 56.507874%, 20.097351%)" stop-opacity="1"/>
<stop offset="0.828125" stop-color="rgb(32.492065%, 56.315613%, 20.108032%)" stop-opacity="1"/>
<stop offset="0.835938" stop-color="rgb(32.347107%, 56.123352%, 20.117188%)" stop-opacity="1"/>
<stop offset="0.84375" stop-color="rgb(32.200623%, 55.931091%, 20.126343%)" stop-opacity="1"/>
<stop offset="0.851562" stop-color="rgb(32.05719%, 55.738831%, 20.135498%)" stop-opacity="1"/>
<stop offset="0.859375" stop-color="rgb(31.913757%, 55.548096%, 20.144653%)" stop-opacity="1"/>
<stop offset="0.867188" stop-color="rgb(31.770325%, 55.355835%, 20.153809%)" stop-opacity="1"/>
<stop offset="0.875" stop-color="rgb(31.626892%, 55.166626%, 20.161438%)" stop-opacity="1"/>
<stop offset="0.882812" stop-color="rgb(31.483459%, 54.975891%, 20.170593%)" stop-opacity="1"/>
<stop offset="0.890625" stop-color="rgb(31.340027%, 54.786682%, 20.178223%)" stop-opacity="1"/>
<stop offset="0.898438" stop-color="rgb(31.19812%, 54.598999%, 20.187378%)" stop-opacity="1"/>
<stop offset="0.90625" stop-color="rgb(31.056213%, 54.40979%, 20.195007%)" stop-opacity="1"/>
<stop offset="0.914062" stop-color="rgb(30.914307%, 54.222107%, 20.202637%)" stop-opacity="1"/>
<stop offset="0.921875" stop-color="rgb(30.7724%, 54.034424%, 20.210266%)" stop-opacity="1"/>
<stop offset="0.929688" stop-color="rgb(30.633545%, 53.848267%, 20.21637%)" stop-opacity="1"/>
<stop offset="0.9375" stop-color="rgb(30.493164%, 53.662109%, 20.223999%)" stop-opacity="1"/>
<stop offset="0.945312" stop-color="rgb(30.352783%, 53.475952%, 20.231628%)" stop-opacity="1"/>
<stop offset="0.953125" stop-color="rgb(30.212402%, 53.291321%, 20.237732%)" stop-opacity="1"/>
<stop offset="0.960938" stop-color="rgb(30.073547%, 53.106689%, 20.243835%)" stop-opacity="1"/>
<stop offset="0.96875" stop-color="rgb(29.934692%, 52.922058%, 20.251465%)" stop-opacity="1"/>
<stop offset="0.976562" stop-color="rgb(29.795837%, 52.737427%, 20.257568%)" stop-opacity="1"/>
<stop offset="0.984375" stop-color="rgb(29.656982%, 52.554321%, 20.263672%)" stop-opacity="1"/>
<stop offset="0.992188" stop-color="rgb(29.519653%, 52.371216%, 20.26825%)" stop-opacity="1"/>
<stop offset="1" stop-color="rgb(29.380798%, 52.18811%, 20.274353%)" stop-opacity="1"/>
</linearGradient>
</defs>

<path fill-rule="nonzero" fill="rgb(50%, 79.998779%, 15.684509%)" fill-opacity="1" d="M 985.847656 532.660156 L 981.578125 631.75 L 1012.378906 618.160156 C 1013.578125 617.640625 1014.839844 617.371094 1016.128906 617.371094 C 1016.699219 617.371094 1017.261719 617.429688 1017.808594 617.53125 L 1014.148438 532.660156 L 1043.191406 459.03125 L 1017.679688 475.230469 L 1022.230469 443.410156 L 1000 476.75 L 977.773438 443.410156 L 982.316406 475.230469 L 956.808594 459.03125 L 985.847656 532.660156 "/>
<g clip-path="url(#clip-0)">
<g clip-path="url(#clip-1)">
<g clip-path="url(#clip-2)">
<path fill-rule="nonzero" fill="url(#linear-pattern-0)" d="M 980.042969 666.859375 L 980.042969 667.378906 L 980.667969 667.378906 L 980.667969 666.859375 Z M 980.042969 666.859375 "/>
</g>
</g>
</g>
<path fill-rule="nonzero" fill="rgb(15.228271%, 58.827209%, 23.484802%)" fill-opacity="1" d="M 1013.890625 656.519531 L 981.613281 670.75 C 978.796875 671.988281 977.519531 675.28125 978.761719 678.101562 C 980.003906 680.921875 983.296875 682.199219 986.113281 680.960938 L 1018.390625 666.730469 C 1021.199219 665.480469 1022.480469 662.191406 1021.238281 659.371094 C 1020 656.558594 1016.699219 655.28125 1013.890625 656.519531 "/>
<path fill-rule="nonzero" fill="rgb(15.228271%, 58.827209%, 23.484802%)" fill-opacity="1" d="M 1013.890625 639.039062 L 981.613281 653.269531 C 978.796875 654.519531 977.519531 657.808594 978.761719 660.628906 C 980.003906 663.441406 983.296875 664.71875 986.113281 663.480469 L 1018.390625 649.25 C 1021.199219 648.011719 1022.480469 644.71875 1021.238281 641.898438 C 1020 639.078125 1016.699219 637.800781 1013.890625 639.039062 "/>
<path fill-rule="nonzero" fill="rgb(15.228271%, 58.827209%, 23.484802%)" fill-opacity="1" d="M 978.761719 643.148438 C 980.003906 645.96875 983.296875 647.25 986.113281 646 L 1018.390625 631.769531 C 1021.199219 630.53125 1022.480469 627.238281 1021.238281 624.421875 C 1020 621.601562 1016.699219 620.320312 1013.890625 621.570312 L 981.613281 635.800781 C 978.796875 637.039062 977.519531 640.328125 978.761719 643.148438 "/>
<path fill-rule="nonzero" fill="rgb(15.228271%, 58.827209%, 23.484802%)" fill-opacity="1" d="M 744.527344 1156.320312 L 828.816406 1098.328125 L 886.808594 1182.628906 L 802.515625 1240.621094 L 744.527344 1156.320312 "/>
<path fill-rule="nonzero" fill="rgb(50%, 79.998779%, 15.684509%)" fill-opacity="1" d="M 734.117188 1141.199219 L 678.941406 1060.988281 L 763.234375 1003 L 818.410156 1083.210938 L 734.117188 1141.199219 "/>
<path fill-rule="nonzero" fill="rgb(15.228271%, 58.827209%, 23.484802%)" fill-opacity="1" d="M 638.789062 1206.78125 L 601.503906 1152.589844 C 591.621094 1138.21875 595.257812 1118.570312 609.621094 1108.679688 L 663.8125 1071.398438 L 718.992188 1151.601562 L 638.789062 1206.78125 "/>
<path fill-rule="nonzero" fill="rgb(15.228271%, 58.827209%, 23.484802%)" fill-opacity="1" d="M 1021.710938 1230.269531 L 967.523438 1267.550781 L 912.34375 1187.351562 L 992.546875 1132.171875 L 1029.828125 1186.359375 C 1039.710938 1200.730469 1036.078125 1220.378906 1021.710938 1230.269531 "/>
<path fill-rule="nonzero" fill="rgb(50%, 79.998779%, 15.684509%)" fill-opacity="1" d="M 787.390625 1251.019531 L 707.1875 1306.199219 L 649.195312 1221.910156 L 729.398438 1166.730469 L 787.390625 1251.019531 "/>
<path fill-rule="nonzero" fill="rgb(50%, 79.998779%, 15.684509%)" fill-opacity="1" d="M 897.21875 1197.75 L 952.394531 1277.960938 L 868.101562 1335.949219 L 812.925781 1255.738281 L 897.21875 1197.75 "/>
<path fill-rule="nonzero" fill="rgb(15.228271%, 58.827209%, 23.484802%)" fill-opacity="1" d="M 913.742188 1017.621094 L 833.539062 1072.800781 L 778.359375 992.589844 L 832.554688 955.308594 C 834.59375 953.910156 836.742188 952.789062 838.949219 951.921875 L 853.8125 937.890625 L 862.835938 939.558594 L 871.695312 957.980469 C 873.449219 959.570312 875.054688 961.390625 876.460938 963.429688 L 913.742188 1017.621094 "/>
<path fill-rule="nonzero" fill="rgb(15.228271%, 58.827209%, 23.484802%)" fill-opacity="1" d="M 852.972656 1346.359375 L 798.78125 1383.640625 C 784.414062 1393.519531 764.757812 1389.890625 754.875 1375.519531 L 717.59375 1321.328125 L 797.796875 1266.148438 L 852.972656 1346.359375 "/>
<path fill-rule="nonzero" fill="rgb(50%, 79.998779%, 15.684509%)" fill-opacity="1" d="M 843.945312 1087.929688 L 924.148438 1032.75 L 982.140625 1117.039062 L 901.9375 1172.21875 L 843.945312 1087.929688 "/>
<path fill-rule="nonzero" fill="rgb(50%, 79.998779%, 15.684509%)" fill-opacity="1" d="M 751.738281 1377.679688 L 714.402344 1323.410156 L 539.433594 1437.511719 L 650.734375 1520.851562 L 752.742188 1379.070312 C 752.398438 1378.621094 752.0625 1378.148438 751.738281 1377.679688 "/>
<path fill-rule="nonzero" fill="rgb(15.228271%, 58.827209%, 23.484802%)" fill-opacity="1" d="M 855.210938 1349.441406 L 800.941406 1386.78125 C 800.46875 1387.101562 799.988281 1387.410156 799.503906 1387.710938 L 844.089844 1556.589844 L 977.828125 1518.550781 L 855.210938 1349.441406 "/>
<path fill-rule="nonzero" fill="rgb(15.228271%, 58.827209%, 23.484802%)" fill-opacity="1" d="M 1255.46875 1156.320312 L 1171.179688 1098.328125 L 1113.191406 1182.628906 L 1197.480469 1240.621094 L 1255.46875 1156.320312 "/>
<path fill-rule="nonzero" fill="rgb(50%, 79.998779%, 15.684509%)" fill-opacity="1" d="M 1265.878906 1141.199219 L 1321.058594 1060.988281 L 1236.769531 1003 L 1181.589844 1083.210938 L 1265.878906 1141.199219 "/>
<path fill-rule="nonzero" fill="rgb(15.228271%, 58.827209%, 23.484802%)" fill-opacity="1" d="M 1361.210938 1206.78125 L 1398.488281 1152.589844 C 1408.378906 1138.21875 1404.738281 1118.570312 1390.378906 1108.679688 L 1336.191406 1071.398438 L 1281.011719 1151.601562 L 1361.210938 1206.78125 "/>
<path fill-rule="nonzero" fill="rgb(50%, 79.998779%, 15.684509%)" fill-opacity="1" d="M 1212.609375 1251.019531 L 1292.808594 1306.199219 L 1350.800781 1221.910156 L 1270.601562 1166.730469 L 1212.609375 1251.019531 "/>
<path fill-rule="nonzero" fill="rgb(50%, 79.998779%, 15.684509%)" fill-opacity="1" d="M 1102.78125 1197.75 L 1047.609375 1277.960938 L 1131.898438 1335.949219 L 1187.078125 1255.738281 L 1102.78125 1197.75 "/>
<path fill-rule="nonzero" fill="rgb(15.228271%, 58.827209%, 23.484802%)" fill-opacity="1" d="M 1147.03125 1346.359375 L 1201.21875 1383.640625 C 1215.578125 1393.519531 1235.238281 1389.890625 1245.121094 1375.519531 L 1282.410156 1321.328125 L 1202.199219 1266.148438 L 1147.03125 1346.359375 "/>
<path fill-rule="nonzero" fill="rgb(50%, 79.998779%, 15.684509%)" fill-opacity="1" d="M 1156.050781 1087.929688 L 1075.851562 1032.75 L 1017.859375 1117.039062 L 1098.058594 1172.21875 L 1156.050781 1087.929688 "/>
<path fill-rule="nonzero" fill="rgb(50%, 79.998779%, 15.684509%)" fill-opacity="1" d="M 1248.261719 1377.679688 L 1285.601562 1323.410156 L 1460.570312 1437.511719 L 1349.269531 1520.851562 L 1247.261719 1379.070312 C 1247.601562 1378.621094 1247.941406 1378.148438 1248.261719 1377.679688 "/>
<path fill-rule="nonzero" fill="rgb(15.228271%, 58.827209%, 23.484802%)" fill-opacity="1" d="M 1144.789062 1349.441406 L 1199.058594 1386.78125 C 1199.53125 1387.101562 1200.011719 1387.410156 1200.488281 1387.710938 L 1155.910156 1556.589844 L 1022.171875 1518.550781 L 1144.789062 1349.441406 "/>
<path fill-rule="nonzero" fill="rgb(15.228271%, 58.827209%, 23.484802%)" fill-opacity="1" d="M 1007.449219 1132.171875 L 1002.308594 1139.640625 L 1032.96875 1184.199219 C 1044.03125 1200.28125 1039.949219 1222.351562 1023.871094 1233.398438 L 1003.359375 1247.519531 L 1032.480469 1267.550781 L 1087.660156 1187.351562 L 1007.449219 1132.171875 "/>
<path fill-rule="nonzero" fill="rgb(15.228271%, 58.827209%, 23.484802%)" fill-opacity="1" d="M 1086.261719 1017.621094 L 1166.460938 1072.800781 L 1221.640625 992.589844 L 1167.449219 955.308594 C 1165.410156 953.910156 1163.261719 952.789062 1161.050781 951.921875 L 1146.191406 937.890625 L 1137.171875 939.558594 L 1128.300781 957.980469 C 1126.550781 959.570312 1124.941406 961.390625 1123.539062 963.429688 L 1086.261719 1017.621094 "/>
<path fill-rule="nonzero" fill="rgb(50%, 79.998779%, 15.684509%)" fill-opacity="1" d="M 1120.398438 961.269531 C 1121.789062 959.261719 1123.390625 957.378906 1125.179688 955.679688 L 1134.570312 936.160156 L 1147.398438 933.789062 L 1163.140625 948.660156 C 1165.421875 949.609375 1167.589844 950.789062 1169.609375 952.171875 L 1175.570312 956.28125 C 1162.488281 931.46875 1140.808594 899.539062 1107.210938 874.058594 C 1042.480469 824.96875 1022.230469 720.101562 1022.230469 720.101562 L 1020.070312 670.039062 C 1020.011719 670.070312 1019.949219 670.101562 1019.890625 670.128906 L 987.613281 684.359375 C 986.425781 684.878906 985.164062 685.148438 983.867188 685.148438 C 982.246094 685.148438 980.6875 684.730469 979.328125 683.96875 L 977.773438 720.101562 C 977.773438 720.101562 957.519531 824.96875 892.789062 874.058594 C 859.183594 899.539062 837.507812 931.46875 824.425781 956.28125 L 830.394531 952.171875 C 832.40625 950.789062 834.578125 949.609375 836.855469 948.660156 L 852.601562 933.789062 L 865.429688 936.160156 L 874.816406 955.679688 C 876.609375 957.378906 878.214844 959.261719 879.597656 961.269531 L 883.335938 966.710938 C 896.023438 943.679688 929.15625 886.761719 956.808594 867.359375 C 978.605469 852.078125 992.566406 803.03125 1000 768.210938 C 1007.429688 803.03125 1021.398438 852.078125 1043.191406 867.359375 C 1070.839844 886.761719 1103.980469 943.679688 1116.660156 966.699219 L 1120.398438 961.269531 "/>
</svg>
